<svg width="20" height="16" viewBox="0 0 20 16" fill="none" xmlns="http://www.w3.org/2000/svg">
<path d="M19.6446 1.70818C19.3854 1.40185 19.0225 1.21474 18.6227 1.18134L4.53846 0.00533135C4.13854 -0.0280669 3.74971 0.0962684 3.44334 0.355369C3.13823 0.613454 2.95139 0.974507 2.91694 1.37243L2.63358 4.03086H1.50214C0.673864 4.03086 0 4.70472 0 5.533V14.3494C0 15.1777 0.673864 15.8516 1.50214 15.8516H15.6354C16.4637 15.8516 17.1376 15.1777 17.1376 14.3494V12.9193L17.6391 12.9611C17.6814 12.9647 17.7235 12.9664 17.7652 12.9664C18.5374 12.9664 19.1957 12.3723 19.261 11.5892L19.9947 2.80333C20.028 2.40345 19.9037 2.01454 19.6446 1.70818ZM1.50214 4.81211H15.6354C16.0329 4.81211 16.3563 5.1355 16.3563 5.533V6.33636H0.781247V5.533C0.781247 5.1355 1.10464 4.81211 1.50214 4.81211ZM0.781247 7.11761H16.3563V8.73826H0.781247V7.11761ZM15.6354 15.0703H1.50214C1.10464 15.0703 0.781247 14.7469 0.781247 14.3494V9.51951H16.3563V14.3494C16.3563 14.7469 16.0329 15.0703 15.6354 15.0703ZM19.2161 2.73829L18.4825 11.5241C18.4494 11.9203 18.1002 12.2158 17.7041 12.1826L17.1376 12.1353V5.533C17.1376 4.70472 16.4637 4.03086 15.6354 4.03086H3.41928L3.69424 1.45118C3.69455 1.44822 3.69483 1.44529 3.69506 1.44228C3.72815 1.04615 4.07721 0.75068 4.47346 0.783883L18.5577 1.95989C18.7496 1.97591 18.9238 2.06571 19.0481 2.21274C19.1725 2.35977 19.2321 2.54638 19.2161 2.73829Z" fill="#111111"/>
<path d="M14.7214 10.681H10.9619C10.7462 10.681 10.5713 10.8559 10.5713 11.0716V13.5243C10.5713 13.74 10.7462 13.9149 10.9619 13.9149H14.7214C14.9371 13.9149 15.112 13.74 15.112 13.5243V11.0716C15.112 10.8559 14.9371 10.681 14.7214 10.681ZM14.3307 13.1337H11.3525V11.4622H14.3307V13.1337Z" fill="#FF8303"/>
</svg>
