<svg width="23" height="19" viewBox="0 0 23 19" fill="none" xmlns="http://www.w3.org/2000/svg">
<path fill-rule="evenodd" clip-rule="evenodd" d="M0 5.9054C0 5.48 0.344865 5.13513 0.77027 5.13513H12.5811C13.0065 5.13513 13.3514 5.48 13.3514 5.9054C13.3514 6.33081 13.0065 6.67567 12.5811 6.67567H0.77027C0.344865 6.67567 0 6.33081 0 5.9054Z" fill="#111111"/>
<path fill-rule="evenodd" clip-rule="evenodd" d="M4.1084 14.1216C4.1084 13.6963 4.45326 13.3514 4.87867 13.3514H6.93272C7.35813 13.3514 7.70299 13.6963 7.70299 14.1216C7.70299 14.547 7.35813 14.8919 6.93272 14.8919H4.87867C4.45326 14.8919 4.1084 14.547 4.1084 14.1216Z" fill="#111111"/>
<path fill-rule="evenodd" clip-rule="evenodd" d="M8.73047 14.1216C8.73047 13.6963 9.07534 13.3514 9.50074 13.3514H13.6088C14.0342 13.3514 14.3791 13.6963 14.3791 14.1216C14.3791 14.547 14.0342 14.8919 13.6088 14.8919H9.50074C9.07534 14.8919 8.73047 14.547 8.73047 14.1216Z" fill="#111111"/>
<path fill-rule="evenodd" clip-rule="evenodd" d="M2.22461 2.2205C1.78806 2.65214 1.54054 3.47255 1.54054 5.27892V13.7211C1.54054 15.5274 1.78806 16.3478 2.22461 16.7795C2.6642 17.2141 3.50114 17.4595 5.33027 17.4595H16.7508C18.5799 17.4595 19.4169 17.2141 19.8564 16.7795C20.293 16.3478 20.5405 15.5274 20.5405 13.7211V9.53081C20.5405 9.10542 20.8854 8.76054 21.3108 8.76054C21.7362 8.76054 22.0811 9.10542 22.0811 9.53081V13.7211C22.0811 15.5196 21.8716 16.9535 20.9396 17.875C20.0107 18.7935 18.5676 19 16.7508 19H5.33027C3.51346 19 2.07039 18.7935 1.14147 17.875C0.209503 16.9535 0 15.5196 0 13.7211V5.27892C0 3.48042 0.209503 2.04651 1.14147 1.12504C2.07039 0.206566 3.51346 0 5.33027 0H12.5811C13.0065 0 13.3514 0.344865 13.3514 0.77027C13.3514 1.19568 13.0065 1.54054 12.5811 1.54054H5.33027C3.50114 1.54054 2.6642 1.78587 2.22461 2.2205Z" fill="#111111"/>
<path fill-rule="evenodd" clip-rule="evenodd" d="M14.8926 3.59461C14.8926 3.16921 15.2375 2.82434 15.6628 2.82434H21.3115C21.7369 2.82434 22.0818 3.16921 22.0818 3.59461C22.0818 4.02002 21.7369 4.36488 21.3115 4.36488H15.6628C15.2375 4.36488 14.8926 4.02002 14.8926 3.59461Z" fill="#FF8303"/>
<path fill-rule="evenodd" clip-rule="evenodd" d="M18.4871 0C18.9125 0 19.2573 0.344865 19.2573 0.77027V6.41892C19.2573 6.84432 18.9125 7.18919 18.4871 7.18919C18.0617 7.18919 17.7168 6.84432 17.7168 6.41892V0.77027C17.7168 0.344865 18.0617 0 18.4871 0Z" fill="#FF8303"/>
</svg>
