<svg width="22" height="20" viewBox="0 0 22 20" fill="none" xmlns="http://www.w3.org/2000/svg">
<path d="M2.42358 8.78295C2.20056 8.78295 2.01978 8.60217 2.01978 8.37914C2.01978 8.15612 2.20056 7.97534 2.42358 7.97534H5.2502C5.47322 7.97534 5.654 8.15612 5.654 8.37914C5.654 8.60217 5.47322 8.78295 5.2502 8.78295H2.42358Z" fill="#FF8303"/>
<path fill-rule="evenodd" clip-rule="evenodd" d="M2.01902 15.7483C0.903954 15.7483 0 14.8444 0 13.7293V2.01901C0 0.903953 0.903954 0 2.01902 0H19.7863C20.9015 0 21.8054 0.903933 21.8054 2.01901V13.7293C21.8054 14.8444 20.9015 15.7483 19.7863 15.7483H18.5749V17.9692C18.5749 18.6383 18.0326 19.1806 17.3635 19.1806H11.1046C10.4355 19.1806 9.89317 18.6383 9.89317 17.9692V15.7483H2.01902ZM19.7863 14.9407H18.5749V13.5274C18.5749 12.8584 18.0326 12.316 17.3635 12.316H17.1616V10.3979C17.1616 8.78108 15.8509 7.47036 14.2341 7.47036C12.6172 7.47036 11.3065 8.78108 11.3065 10.3979V12.316H11.1046C10.4355 12.316 9.89317 12.8584 9.89317 13.5274V14.9407H2.01902C1.34997 14.9407 0.807606 14.3983 0.807606 13.7293V6.86465H20.9978V13.7293C20.9978 14.3983 20.4555 14.9407 19.7863 14.9407ZM12.1141 12.316H16.354V10.3979C16.354 9.2271 15.4049 8.27796 14.2341 8.27796C13.0632 8.27796 12.1141 9.2271 12.1141 10.3979V12.316ZM0.807606 6.05705H20.9978V4.03803H0.807606V6.05705ZM0.807606 3.23042H20.9978V2.01901C20.9978 1.34997 20.4555 0.807606 19.7863 0.807606H2.01902C1.34997 0.807606 0.807606 1.34997 0.807606 2.01901V3.23042ZM17.7673 13.5274C17.7673 13.3044 17.5866 13.1236 17.3635 13.1236H11.1046C10.8816 13.1236 10.7008 13.3044 10.7008 13.5274V17.9692C10.7008 18.1923 10.8816 18.373 11.1046 18.373H17.3635C17.5866 18.373 17.7673 18.1923 17.7673 17.9692V13.5274Z" fill="#111111"/>
</svg>
