<svg width="25" height="22" viewBox="0 0 25 22" fill="none" xmlns="http://www.w3.org/2000/svg">
<path d="M2.76316 10.0143C2.50886 10.0143 2.30273 9.80813 2.30273 9.55384C2.30273 9.29954 2.50886 9.09341 2.76316 9.09341H5.9861C6.24039 9.09341 6.44652 9.29954 6.44652 9.55384C6.44652 9.80813 6.24039 10.0143 5.9861 10.0143H2.76316Z" fill="#FF8303"/>
<path fill-rule="evenodd" clip-rule="evenodd" d="M2.30211 17.9565C1.0307 17.9565 0 16.9258 0 15.6544V2.3022C0 1.03079 1.0307 9.15527e-05 2.30211 9.15527e-05H22.5606C23.8321 9.15527e-05 24.8627 1.03077 24.8627 2.3022V15.6544C24.8627 16.9258 23.8321 17.9565 22.5606 17.9565H21.1794V20.4888C21.1794 21.2517 20.561 21.8701 19.7981 21.8701H12.6616C11.8987 21.8701 11.2803 21.2517 11.2803 20.4888V17.9565H2.30211ZM22.5606 17.0357H21.1794V15.4242C21.1794 14.6613 20.561 14.0429 19.7981 14.0429H19.5679V11.8559C19.5679 10.0124 18.0734 8.51788 16.2298 8.51788C14.3863 8.51788 12.8918 10.0124 12.8918 11.8559V14.0429H12.6616C11.8987 14.0429 11.2803 14.6613 11.2803 15.4242V17.0357H2.30211C1.53926 17.0357 0.920842 16.4173 0.920842 15.6544V7.82725H23.9419V15.6544C23.9419 16.4173 23.3236 17.0357 22.5606 17.0357ZM13.8126 14.0429H18.6471V11.8559C18.6471 10.5209 17.5648 9.43872 16.2298 9.43872C14.8949 9.43872 13.8126 10.5209 13.8126 11.8559V14.0429ZM0.920842 6.90641H23.9419V4.6043H0.920842V6.90641ZM0.920842 3.68346H23.9419V2.3022C23.9419 1.53935 23.3236 0.920934 22.5606 0.920934H2.30211C1.53926 0.920934 0.920842 1.53935 0.920842 2.3022V3.68346ZM20.2585 15.4242C20.2585 15.1699 20.0524 14.9638 19.7981 14.9638H12.6616C12.4073 14.9638 12.2012 15.1699 12.2012 15.4242V20.4888C12.2012 20.7432 12.4073 20.9492 12.6616 20.9492H19.7981C20.0524 20.9492 20.2585 20.7432 20.2585 20.4888V15.4242Z" fill="#111111"/>
</svg>
