<svg width="18" height="17" viewBox="0 0 18 17" fill="none" xmlns="http://www.w3.org/2000/svg">
<path d="M4.2 16.8C4.1118 16.8 4.023 16.7802 3.9396 16.7406C3.7326 16.6404 3.6 16.431 3.6 16.2V13.2H1.8C0.8076 13.2 0 12.3924 0 11.4V1.8C0 0.8076 0.8076 0 1.8 0H16.2C17.1924 0 18 0.8076 18 1.8V11.4C18 12.3924 17.1924 13.2 16.2 13.2H8.9106L4.575 16.6686C4.4664 16.7556 4.3338 16.8 4.2 16.8ZM1.8 1.2C1.4688 1.2 1.2 1.4694 1.2 1.8V11.4C1.2 11.7306 1.4688 12 1.8 12H4.2C4.5318 12 4.8 12.2682 4.8 12.6V14.952L8.325 12.1314C8.4318 12.0462 8.5632 12 8.7 12H16.2C16.5312 12 16.8 11.7306 16.8 11.4V1.8C16.8 1.4694 16.5312 1.2 16.2 1.2H1.8Z" fill="#111111"/>
<path d="M13.7996 6.00011H4.19961C3.86781 6.00011 3.59961 5.73131 3.59961 5.40011C3.59961 5.06891 3.86781 4.80011 4.19961 4.80011H13.7996C14.1314 4.80011 14.3996 5.06891 14.3996 5.40011C14.3996 5.73131 14.1314 6.00011 13.7996 6.00011Z" fill="#FF8303"/>
<path d="M8.99961 8.39998H4.19961C3.86781 8.39998 3.59961 8.13118 3.59961 7.79998C3.59961 7.46878 3.86781 7.19998 4.19961 7.19998H8.99961C9.33141 7.19998 9.59961 7.46878 9.59961 7.79998C9.59961 8.13118 9.33141 8.39998 8.99961 8.39998Z" fill="#FF8303"/>
</svg>
