<svg width="24" height="24" viewBox="0 0 24 24" fill="none" xmlns="http://www.w3.org/2000/svg">
<path d="M24 5.73924V18.261C24 19.4135 23.0656 20.3479 21.913 20.3479H2.08697C0.934359 20.3479 0 19.4135 0 18.261V5.73924C0 4.58667 0.934359 3.65227 2.08697 3.65227H21.9131C23.0656 3.65227 24 4.58667 24 5.73924Z" fill="#5E6088"/>
<path d="M24 8.34773V18.2608C24 19.4133 23.0656 20.3477 21.913 20.3477H2.08697C0.934359 20.3477 0 19.4133 0 18.2608V8.34773H24Z" fill="#4F5275"/>
<path d="M7.26825 10.4348H3.16636C2.85835 10.4348 2.60864 10.1851 2.60864 9.87704V6.81858C2.60864 6.51057 2.85835 6.26086 3.16636 6.26086H7.26821C7.57622 6.26086 7.82592 6.51057 7.82592 6.81858V9.87694C7.82602 10.1851 7.57627 10.4348 7.26825 10.4348Z" fill="#FED76E"/>
<path d="M7.82602 8.34773V9.87694C7.82602 10.185 7.57631 10.4347 7.2683 10.4347H3.16636C2.85835 10.4347 2.60864 10.185 2.60864 9.87694V8.34773H7.82602Z" fill="#FEAF50"/>
<path d="M6.13036 16.1739C6.13036 16.39 5.95514 16.5652 5.73905 16.5652H2.6086C2.3925 16.5652 2.21729 16.39 2.21729 16.1739C2.21729 15.9578 2.3925 15.7826 2.6086 15.7826H5.73905C5.95514 15.7826 6.13036 15.9578 6.13036 16.1739ZM10.9564 15.7826H7.82597C7.60988 15.7826 7.43466 15.9578 7.43466 16.1739C7.43466 16.39 7.60988 16.5652 7.82597 16.5652H10.9564C11.1725 16.5652 11.3477 16.39 11.3477 16.1739C11.3477 15.9578 11.1725 15.7826 10.9564 15.7826ZM16.1738 15.7826H13.0433C12.8273 15.7826 12.652 15.9578 12.652 16.1739C12.652 16.39 12.8273 16.5652 13.0433 16.5652H16.1738C16.3899 16.5652 16.5651 16.39 16.5651 16.1739C16.5651 15.9578 16.3899 15.7826 16.1738 15.7826ZM21.3912 15.7826H18.2608C18.0447 15.7826 17.8695 15.9578 17.8695 16.1739C17.8695 16.39 18.0447 16.5652 18.2608 16.5652H21.3912C21.6073 16.5652 21.7825 16.39 21.7825 16.1739C21.7825 15.9578 21.6073 15.7826 21.3912 15.7826Z" fill="white"/>
<path d="M5.47817 9.1304H4.95645C4.52427 9.1304 4.17383 8.78001 4.17383 8.34778C4.17383 7.91559 4.52422 7.56516 4.95645 7.56516H5.47817C5.91036 7.56516 6.2608 7.91555 6.2608 8.34778C6.26075 8.77997 5.91036 9.1304 5.47817 9.1304Z" fill="#FEE66B"/>
<path d="M18.7044 8.34789C18.7044 8.56398 18.5292 8.7392 18.3131 8.7392H18.2609C18.0448 8.7392 17.8696 8.56398 17.8696 8.34789C17.8696 8.13179 18.0448 7.95657 18.2609 7.95657H18.3131C18.5292 7.95657 18.7044 8.13179 18.7044 8.34789ZM19.5528 7.10654C19.3659 6.99826 19.1263 7.06197 19.018 7.249C18.9096 7.43598 18.9734 7.67542 19.1604 7.78379C19.3618 7.90051 19.487 8.11665 19.487 8.34793C19.487 8.57922 19.3619 8.79536 19.1604 8.91207C18.9734 9.02045 18.9097 9.25989 19.018 9.44687C19.0905 9.57207 19.2219 9.64211 19.3569 9.64211C19.4235 9.64211 19.4909 9.62509 19.5527 9.58932C19.9949 9.33315 20.2696 8.85747 20.2696 8.34798C20.2696 7.8385 19.9949 7.36272 19.5528 7.10654ZM20.5961 6.20218C20.4091 6.09404 20.1697 6.15779 20.0614 6.34487C19.9531 6.5319 20.017 6.77129 20.2041 6.87953C20.7273 7.18225 21.0523 7.74489 21.0523 8.34784C21.0523 8.95079 20.7273 9.51348 20.2041 9.81625C20.0171 9.92453 19.9532 10.1639 20.0615 10.3509C20.134 10.4763 20.2654 10.5463 20.4005 10.5463C20.467 10.5463 20.5344 10.5293 20.5962 10.4936C21.3603 10.0514 21.8349 9.22923 21.8349 8.34784C21.8349 7.46645 21.3602 6.64436 20.5961 6.20218Z" fill="white"/>
</svg>
