<svg width="17" height="18" viewBox="0 0 17 18" fill="none" xmlns="http://www.w3.org/2000/svg">
<path fill-rule="evenodd" clip-rule="evenodd" d="M6.94644 1.77545e-05H10.0537C10.2525 -0.000110893 10.4257 -0.000221063 10.5893 0.0259037C11.2356 0.129107 11.7948 0.532188 12.0971 1.11266C12.1736 1.25958 12.2283 1.42396 12.291 1.61264L12.3937 1.92038C12.411 1.97248 12.416 1.98722 12.4201 1.99884C12.5811 2.4437 12.9983 2.74443 13.4712 2.75641C13.4837 2.75672 13.4988 2.75678 13.5541 2.75678H16.3108C16.6914 2.75678 17 3.06534 17 3.44596C17 3.82659 16.6914 4.13515 16.3108 4.13515H0.689186C0.308562 4.13515 0 3.82659 0 3.44596C0 3.06534 0.308562 2.75678 0.689186 2.75678H3.446C3.50118 2.75678 3.51641 2.75672 3.52884 2.75641C4.00176 2.74443 4.41897 2.44372 4.57989 1.99886C4.58412 1.98717 4.58898 1.97273 4.60643 1.92038L4.70899 1.61267C4.77175 1.42399 4.82644 1.25958 4.90295 1.11266C5.20522 0.532188 5.76447 0.129107 6.41074 0.0259037C6.57432 -0.000221063 6.74759 -0.000110893 6.94644 1.77545e-05ZM5.7507 2.75678C5.79804 2.66395 5.83998 2.56748 5.87607 2.46772C5.88702 2.43744 5.89777 2.40518 5.91158 2.36376L6.00328 2.08863C6.08706 1.83729 6.10636 1.78603 6.12549 1.74928C6.22625 1.55579 6.41267 1.42143 6.62809 1.38703C6.66902 1.38049 6.72369 1.37841 6.98862 1.37841H10.0114C10.2763 1.37841 10.3311 1.38049 10.372 1.38703C10.5874 1.42143 10.7738 1.55579 10.8746 1.74928C10.8937 1.78603 10.913 1.83729 10.9967 2.08863L11.0884 2.36359L11.124 2.46774C11.1601 2.5675 11.202 2.66395 11.2493 2.75678H5.7507Z" fill="#FF8303"/>
<path d="M2.9091 5.69745C2.88378 5.31766 2.55538 5.03031 2.17559 5.05563C1.79582 5.08095 1.50846 5.40935 1.53378 5.78913L1.95965 12.1772C2.03822 13.3559 2.10168 14.308 2.25051 15.0552C2.40526 15.832 2.66845 16.4808 3.21207 16.9893C3.7557 17.4979 4.42058 17.7174 5.20593 17.8201C5.9613 17.9189 6.91548 17.9189 8.09684 17.9189H8.90447C10.0858 17.9189 11.04 17.9189 11.7955 17.8201C12.5808 17.7174 13.2457 17.4979 13.7893 16.9893C14.333 16.4808 14.5961 15.832 14.7509 15.0552C14.8997 14.308 14.9631 13.3559 15.0417 12.1772L15.4676 5.78913C15.4929 5.40935 15.2056 5.08095 14.8258 5.05563C14.446 5.03031 14.1176 5.31766 14.0923 5.69745L13.6696 12.0371C13.5871 13.2757 13.5283 14.1375 13.3991 14.7859C13.2737 15.4149 13.0989 15.7478 12.8476 15.9828C12.5964 16.2178 12.2525 16.3703 11.6166 16.4534C10.9611 16.5392 10.0973 16.5405 8.85604 16.5405H8.14536C6.90409 16.5405 6.04026 16.5392 5.38471 16.4534C4.74882 16.3703 4.405 16.2178 4.15376 15.9828C3.90252 15.7478 3.72761 15.4149 3.60232 14.7859C3.47316 14.1375 3.41432 13.2757 3.33174 12.0371L2.9091 5.69745Z" fill="#111111"/>
<path d="M6.13433 7.35485C6.51307 7.31699 6.85085 7.59331 6.8887 7.97208L7.34816 12.5667C7.38602 12.9453 7.1097 13.2831 6.73093 13.321C6.35221 13.3588 6.01448 13.0825 5.9766 12.7038L5.51714 8.10919C5.47927 7.7305 5.7556 7.39271 6.13433 7.35485Z" fill="#111111"/>
<path d="M10.8657 7.35485C11.2445 7.39271 11.5208 7.7305 11.4829 8.10919L11.0235 12.7038C10.9856 13.0825 10.6478 13.3588 10.2691 13.321C9.89036 13.2831 9.61405 12.9453 9.65191 12.5667L10.1114 7.97208C10.1492 7.59331 10.487 7.31699 10.8657 7.35485Z" fill="#111111"/>
</svg>
