<svg width="16" height="20" viewBox="0 0 16 20" fill="none" xmlns="http://www.w3.org/2000/svg">
<path d="M3.52051 12.4801C3.52051 12.1266 3.80704 11.8401 4.16051 11.8401H11.8405C12.194 11.8401 12.4805 12.1266 12.4805 12.4801C12.4805 12.8336 12.194 13.1201 11.8405 13.1201H4.16051C3.80704 13.1201 3.52051 12.8336 3.52051 12.4801Z" fill="#111111"/>
<path d="M9.27965 4.16016C8.92618 4.16016 8.63965 4.44668 8.63965 4.80016C8.63965 5.15363 8.92618 5.44016 9.27965 5.44016H11.8396C12.1931 5.44016 12.4796 5.15363 12.4796 4.80016C12.4796 4.44668 12.1931 4.16016 11.8396 4.16016H9.27965Z" fill="#111111"/>
<path d="M3.52051 15.0401C3.52051 14.6867 3.80704 14.4001 4.16051 14.4001H11.8405C12.194 14.4001 12.4805 14.6867 12.4805 15.0401C12.4805 15.3936 12.194 15.6801 11.8405 15.6801H4.16051C3.80704 15.6801 3.52051 15.3936 3.52051 15.0401Z" fill="#111111"/>
<path d="M9.27965 6.72003C8.92618 6.72003 8.63965 7.00656 8.63965 7.36003C8.63965 7.7135 8.92618 8.00003 9.27965 8.00003H11.8396C12.1931 8.00003 12.4796 7.7135 12.4796 7.36003C12.4796 7.00656 12.1931 6.72003 11.8396 6.72003H9.27965Z" fill="#111111"/>
<path d="M3.45182 3.45636H4.29182L6.36636 6.80364H6.37909V3.45636H7.13636V8H6.29636L4.22818 4.65909H4.20909V8H3.45182V3.45636Z" fill="#111111"/>
<path d="M3 6.02727H7.59455V6.34545H3V6.02727Z" fill="#111111"/>
<path fill-rule="evenodd" clip-rule="evenodd" d="M4.48 0C2.00576 0 0 2.00576 0 4.48V14.72C0 17.1942 2.00576 19.2 4.48 19.2H11.52C13.9942 19.2 16 17.1942 16 14.72V4.48C16 2.00576 13.9942 0 11.52 0H4.48ZM1.28 4.48C1.28 2.7127 2.7127 1.28 4.48 1.28H11.52C13.2873 1.28 14.72 2.7127 14.72 4.48V14.72C14.72 16.4873 13.2873 17.92 11.52 17.92H4.48C2.7127 17.92 1.28 16.4873 1.28 14.72V4.48Z" fill="#111111"/>
</svg>
