<svg width="21" height="14" viewBox="0 0 21 14" fill="none" xmlns="http://www.w3.org/2000/svg">
<path d="M20.8666 6.28386C20.6789 6.02722 16.2089 0 10.4999 0C4.79088 0 0.320661 6.02722 0.13326 6.28361C-0.04442 6.52708 -0.04442 6.8573 0.13326 7.10077C0.320661 7.3574 4.79088 13.3846 10.4999 13.3846C16.2089 13.3846 20.6789 7.35736 20.8666 7.10097C21.0445 6.85755 21.0445 6.52708 20.8666 6.28386ZM10.4999 12C6.2946 12 2.65237 7.99963 1.57418 6.69184C2.65097 5.38291 6.28558 1.38461 10.4999 1.38461C14.705 1.38461 18.347 5.3843 19.4256 6.69278C18.3488 8.00168 14.7142 12 10.4999 12Z" fill="#111111"/>
<path d="M10.5005 2.53879C8.21015 2.53879 6.34668 4.40226 6.34668 6.69266C6.34668 8.98306 8.21015 10.8465 10.5005 10.8465C12.791 10.8465 14.6544 8.98306 14.6544 6.69266C14.6544 4.40226 12.791 2.53879 10.5005 2.53879ZM10.5005 9.46188C8.97353 9.46188 7.73133 8.21963 7.73133 6.69266C7.73133 5.16568 8.97357 3.92344 10.5005 3.92344C12.0275 3.92344 13.2698 5.16568 13.2698 6.69266C13.2698 8.21963 12.0276 9.46188 10.5005 9.46188Z" fill="#111111"/>
</svg>
