<svg width="24" height="24" viewBox="0 0 24 24" fill="none" xmlns="http://www.w3.org/2000/svg">
<path d="M22.4438 22.5282H1.55625C0.698438 22.5282 0 21.8344 0 20.9719V7.78129C0 6.91879 0.698438 6.22504 1.55625 6.22504H22.4391C23.3016 6.22504 23.9953 6.92347 23.9953 7.78129V20.9719C24 21.8344 23.3016 22.5282 22.4438 22.5282Z" fill="url(#paint0_linear_222_3655)"/>
<path d="M24 15.7592V17.6623C22.875 17.4467 21.7781 17.3529 20.6906 17.4607C18.7266 17.6576 16.9031 18.5764 14.9484 20.3529C14.6344 20.6389 14.3156 20.9342 14.0109 21.2201C13.5422 21.6561 13.0734 22.0967 12.5812 22.5279H9.54375C10.6688 21.7779 11.6766 20.8357 12.7313 19.8514C13.0453 19.5607 13.3641 19.2561 13.6875 18.9654C15.9563 16.9076 18.1219 15.8342 20.5031 15.5951C21.6797 15.4779 22.8703 15.567 24 15.7592ZM12.5203 6.22481C12.3609 11.0389 8.39531 14.9014 3.54375 14.9014C2.2875 14.9014 1.0875 14.6436 0 14.1701V12.0748C1.04531 12.6795 2.25469 13.0217 3.54375 13.0217C7.35938 13.0217 10.4812 9.99825 10.6406 6.22012H12.5203V6.22481Z" fill="url(#paint1_linear_222_3655)"/>
<path d="M24 20.2686V20.9717C24 21.8342 23.3016 22.528 22.4437 22.528H1.55625C0.698438 22.528 0 21.8342 0 20.9717V20.2686H24Z" fill="url(#paint2_linear_222_3655)"/>
<path d="M22.2422 22.5282H22.4437C23.3062 22.5282 24 21.8297 24 20.9719V7.78129C24 6.91879 23.3016 6.22504 22.4437 6.22504H22.2422V22.5282Z" fill="url(#paint3_linear_222_3655)"/>
<path d="M24 8.4795V7.77637C24 6.91387 23.3016 6.22012 22.4437 6.22012H1.55625C0.698438 6.22481 0 6.91856 0 7.78106V8.48419H24V8.4795Z" fill="url(#paint4_linear_222_3655)"/>
<path d="M1.75781 6.22504H1.55625C0.698438 6.22504 0 6.91879 0 7.78129V20.9719C0 21.8344 0.698438 22.5282 1.55625 22.5282H1.75781V6.22504Z" fill="url(#paint5_linear_222_3655)"/>
<path d="M5.0252 14.1609H2.72832C2.37676 14.1609 2.09082 13.875 2.09082 13.5234V11.9953C2.09082 11.6438 2.37676 11.3578 2.72832 11.3578H5.0252C5.37676 11.3578 5.6627 11.6438 5.6627 11.9953V13.5234C5.65801 13.875 5.37676 14.1609 5.0252 14.1609Z" fill="url(#paint6_linear_222_3655)"/>
<path d="M5.02485 14.1232H2.7186C2.39048 14.1232 2.12329 13.856 2.12329 13.5279V11.9951C2.12329 11.667 2.39048 11.3998 2.7186 11.3998H5.02485C5.35298 11.3998 5.62017 11.667 5.62017 11.9951V13.5279C5.62017 13.856 5.35298 14.1232 5.02485 14.1232Z" fill="url(#paint7_linear_222_3655)"/>
<path d="M5.62017 12.806V12.7123H4.40142V12.2998L4.71548 11.9857H5.62017C5.62017 11.9529 5.61548 11.9201 5.61079 11.892H4.69204C4.67798 11.892 4.6686 11.8967 4.65923 11.906L4.3311 12.2342H3.9186V11.3998H3.82485V12.2342H3.41704L3.08892 11.906C3.07954 11.8967 3.06548 11.892 3.0561 11.892H2.13267C2.12798 11.9201 2.12329 11.9529 2.12329 11.9857H3.03735L3.34673 12.2951V12.7123H2.12329V12.806H3.34673V13.2232L3.03735 13.5326H2.12329C2.12329 13.5654 2.12798 13.5982 2.13267 13.6263H3.0561C3.07017 13.6263 3.07954 13.6217 3.08892 13.6123L3.41704 13.2842H3.82485V14.1185H3.9186V13.2842H4.3311L4.65923 13.6123C4.6686 13.6217 4.67798 13.6263 4.69204 13.6263H5.61079C5.61548 13.5982 5.62017 13.5654 5.62017 13.5326H4.71548L4.40142 13.2185V12.806H5.62017ZM4.30767 13.1951H3.44048V12.3279H4.30767V13.1951Z" fill="url(#paint8_linear_222_3655)"/>
<path d="M5.02026 11.3997H5.02495C5.35308 11.3997 5.62026 11.6669 5.62026 11.9951V13.5279C5.62026 13.856 5.35308 14.1232 5.02495 14.1232H5.02026V11.3997Z" fill="url(#paint9_linear_222_3655)"/>
<path d="M5.61992 13.556C5.60586 13.8701 5.34336 14.1232 5.02461 14.1232H2.71836C2.39961 14.1232 2.13711 13.8701 2.12305 13.556H5.61992Z" fill="url(#paint10_linear_222_3655)"/>
<path d="M2.72798 11.3998H2.7186C2.39048 11.3998 2.12329 11.667 2.12329 11.9951V13.5279C2.12329 13.856 2.39048 14.1232 2.7186 14.1232H2.72329V11.3998H2.72798Z" fill="url(#paint11_linear_222_3655)"/>
<path d="M5.62017 11.967C5.6061 11.6529 5.3436 11.3998 5.02485 11.3998H2.7186C2.39985 11.3998 2.13735 11.6529 2.12329 11.967H5.62017Z" fill="url(#paint12_linear_222_3655)"/>
<path d="M21.4874 14.0906C21.464 14.0906 21.4452 14.0859 21.4265 14.0765C21.3562 14.0437 21.3281 13.9594 21.3656 13.889C21.7265 13.1719 21.7265 12.3515 21.3656 11.6344C21.3327 11.564 21.3609 11.4797 21.4265 11.4469C21.4968 11.414 21.5812 11.4422 21.614 11.5078C22.0171 12.3047 22.0171 13.2187 21.614 14.0156C21.5859 14.0625 21.539 14.0906 21.4874 14.0906ZM21.0046 13.8234C21.3843 13.1484 21.3843 12.3703 21.0046 11.6953C20.9671 11.6297 20.8827 11.6015 20.8124 11.6437C20.7468 11.6812 20.7187 11.7656 20.7609 11.8359C21.0937 12.4265 21.0937 13.1015 20.7609 13.6875C20.7234 13.7531 20.7468 13.8422 20.8124 13.8797C20.8359 13.8937 20.8593 13.8984 20.8827 13.8984C20.9296 13.8984 20.9765 13.8703 21.0046 13.8234ZM20.4046 13.6359C20.7749 13.0969 20.7749 12.4265 20.4046 11.8828C20.3624 11.8172 20.2734 11.8031 20.2077 11.8453C20.1421 11.8875 20.1281 11.9765 20.1702 12.0422C20.4702 12.4828 20.4702 13.0359 20.1702 13.4765C20.1281 13.5422 20.1421 13.6265 20.2077 13.6734C20.2312 13.6922 20.2593 13.6969 20.2874 13.6969C20.3343 13.6969 20.3765 13.6781 20.4046 13.6359ZM19.7718 13.4531C19.9781 13.2656 20.0906 13.0172 20.0906 12.7594C20.0906 12.5015 19.9781 12.2531 19.7718 12.0656C19.7156 12.014 19.6265 12.014 19.5749 12.075C19.5234 12.1312 19.5234 12.2203 19.5843 12.2719C19.7296 12.4078 19.8093 12.5812 19.8093 12.7594C19.8093 12.9375 19.7296 13.1109 19.5843 13.2469C19.5281 13.2984 19.5234 13.3875 19.5749 13.4437C19.6031 13.4719 19.6406 13.4906 19.6781 13.4906C19.7109 13.4906 19.7437 13.4765 19.7718 13.4531Z" fill="url(#paint13_linear_222_3655)"/>
<path d="M11.8592 20.1654H2.26392C2.18423 20.1654 2.12329 20.1044 2.12329 20.0247C2.12329 19.9451 2.18423 19.8841 2.26392 19.8841H11.8592C11.9389 19.8841 11.9999 19.9451 11.9999 20.0247C11.9999 20.1044 11.9389 20.1654 11.8592 20.1654Z" fill="url(#paint14_linear_222_3655)"/>
<path d="M21.7732 20.1654H19.9639C19.8842 20.1654 19.8232 20.1044 19.8232 20.0247C19.8232 19.9451 19.8842 19.8841 19.9639 19.8841H21.7732C21.8529 19.8841 21.9139 19.9451 21.9139 20.0247C21.9139 20.1044 21.8482 20.1654 21.7732 20.1654ZM19.1951 20.0247C19.1951 19.9451 19.1342 19.8841 19.0545 19.8841H17.2451C17.1654 19.8841 17.1045 19.9451 17.1045 20.0247C17.1045 20.1044 17.1654 20.1654 17.2451 20.1654H19.0545C19.1342 20.1654 19.1951 20.1044 19.1951 20.0247Z" fill="url(#paint15_linear_222_3655)"/>
<path d="M2.26392 9.41694C2.18423 9.41694 2.12329 9.356 2.12329 9.27631V8.72787C2.12329 8.64819 2.18423 8.58725 2.26392 8.58725C2.3436 8.58725 2.40454 8.64819 2.40454 8.72787V9.27631C2.40454 9.356 2.3436 9.41694 2.26392 9.41694ZM3.1686 9.27631V8.72787C3.1686 8.64819 3.10767 8.58725 3.02798 8.58725C2.94829 8.58725 2.88735 8.64819 2.88735 8.72787V9.27631C2.88735 9.356 2.94829 9.41694 3.02798 9.41694C3.10767 9.41694 3.1686 9.356 3.1686 9.27631ZM3.93735 9.27631V8.72787C3.93735 8.64819 3.87642 8.58725 3.79673 8.58725C3.71704 8.58725 3.6561 8.64819 3.6561 8.72787V9.27631C3.6561 9.356 3.71704 9.41694 3.79673 9.41694C3.87173 9.41694 3.93735 9.356 3.93735 9.27631ZM4.70142 9.27631V8.72787C4.70142 8.64819 4.64048 8.58725 4.56079 8.58725C4.4811 8.58725 4.42017 8.64819 4.42017 8.72787V9.27631C4.42017 9.356 4.4811 9.41694 4.56079 9.41694C4.64048 9.41694 4.70142 9.356 4.70142 9.27631Z" fill="url(#paint16_linear_222_3655)"/>
<path d="M2.57329 17.7795H2.54985C2.31548 17.7795 2.12329 17.5873 2.12329 17.353V16.6873C2.12329 16.453 2.31548 16.2608 2.54985 16.2608H2.57329C2.80767 16.2608 2.99985 16.453 2.99985 16.6873V17.353C2.99985 17.592 2.81235 17.7795 2.57329 17.7795ZM2.54985 16.5467C2.47017 16.5467 2.40454 16.6123 2.40454 16.692V17.3576C2.40454 17.4373 2.47017 17.503 2.54985 17.503H2.57329C2.65298 17.503 2.7186 17.4373 2.7186 17.3576V16.692C2.7186 16.6123 2.65298 16.5467 2.57329 16.5467H2.54985Z" fill="url(#paint17_linear_222_3655)"/>
<path d="M3.71245 17.7794H3.68901C3.45464 17.7794 3.26245 17.5872 3.26245 17.3529V16.6872C3.26245 16.4529 3.45464 16.2607 3.68901 16.2607H3.71245C3.94683 16.2607 4.13901 16.4529 4.13901 16.6872V17.3529C4.13901 17.5919 3.94683 17.7794 3.71245 17.7794ZM3.68901 16.5466C3.60933 16.5466 3.5437 16.6122 3.5437 16.6919V17.3576C3.5437 17.4372 3.60933 17.5029 3.68901 17.5029H3.71245C3.79214 17.5029 3.85776 17.4372 3.85776 17.3576V16.6919C3.85776 16.6122 3.79214 16.5466 3.71245 16.5466H3.68901Z" fill="url(#paint18_linear_222_3655)"/>
<path d="M4.85112 17.7794H4.82769C4.59331 17.7794 4.40112 17.5872 4.40112 17.3529V16.6872C4.40112 16.4529 4.59331 16.2607 4.82769 16.2607H4.85112C5.0855 16.2607 5.27769 16.4529 5.27769 16.6872V17.3529C5.27769 17.5919 5.0855 17.7794 4.85112 17.7794ZM4.82769 16.5466C4.748 16.5466 4.68237 16.6122 4.68237 16.6919V17.3576C4.68237 17.4372 4.748 17.5029 4.82769 17.5029H4.85112C4.93081 17.5029 4.99644 17.4372 4.99644 17.3576V16.6919C4.99644 16.6122 4.93081 16.5466 4.85112 16.5466H4.82769Z" fill="url(#paint19_linear_222_3655)"/>
<path d="M5.99053 17.7794H5.96709C5.73272 17.7794 5.54053 17.5872 5.54053 17.3529V16.6872C5.54053 16.4529 5.73272 16.2607 5.96709 16.2607H5.99053C6.2249 16.2607 6.41709 16.4529 6.41709 16.6872V17.3529C6.41709 17.5919 6.2249 17.7794 5.99053 17.7794ZM5.96709 16.5466C5.8874 16.5466 5.82178 16.6122 5.82178 16.6919V17.3576C5.82178 17.4372 5.8874 17.5029 5.96709 17.5029H5.99053C6.07022 17.5029 6.13584 17.4372 6.13584 17.3576V16.6919C6.13584 16.6122 6.07022 16.5466 5.99053 16.5466H5.96709Z" fill="url(#paint20_linear_222_3655)"/>
<path d="M7.73882 17.7794H7.71538C7.48101 17.7794 7.28882 17.5872 7.28882 17.3529V16.6872C7.28882 16.4529 7.48101 16.2607 7.71538 16.2607H7.73882C7.97319 16.2607 8.16538 16.4529 8.16538 16.6872V17.3529C8.16538 17.5919 7.97319 17.7794 7.73882 17.7794ZM7.71538 16.5466C7.63569 16.5466 7.57007 16.6122 7.57007 16.6919V17.3576C7.57007 17.4372 7.63569 17.5029 7.71538 17.5029H7.73882C7.81851 17.5029 7.88413 17.4372 7.88413 17.3576V16.6919C7.88413 16.6122 7.81851 16.5466 7.73882 16.5466H7.71538Z" fill="url(#paint21_linear_222_3655)"/>
<path d="M8.87773 17.7793H8.8543C8.61992 17.7793 8.42773 17.5872 8.42773 17.3528V16.6872C8.42773 16.4528 8.61992 16.2606 8.8543 16.2606H8.87773C9.11211 16.2606 9.3043 16.4528 9.3043 16.6872V17.3528C9.3043 17.5918 9.11211 17.7793 8.87773 17.7793ZM8.8543 16.5465C8.77461 16.5465 8.70898 16.6122 8.70898 16.6918V17.3575C8.70898 17.4372 8.77461 17.5028 8.8543 17.5028H8.87773C8.95742 17.5028 9.02305 17.4372 9.02305 17.3575V16.6918C9.02305 16.6122 8.95742 16.5465 8.87773 16.5465H8.8543Z" fill="url(#paint22_linear_222_3655)"/>
<path d="M10.0171 17.7793H9.9937C9.75933 17.7793 9.56714 17.5872 9.56714 17.3528V16.6872C9.56714 16.4528 9.75933 16.2606 9.9937 16.2606H10.0171C10.2515 16.2606 10.4437 16.4528 10.4437 16.6872V17.3528C10.4437 17.5918 10.2515 17.7793 10.0171 17.7793ZM9.9937 16.5465C9.91401 16.5465 9.84839 16.6122 9.84839 16.6918V17.3575C9.84839 17.4372 9.91401 17.5028 9.9937 17.5028H10.0171C10.0968 17.5028 10.1625 17.4372 10.1625 17.3575V16.6918C10.1625 16.6122 10.0968 16.5465 10.0171 16.5465H9.9937Z" fill="url(#paint23_linear_222_3655)"/>
<path d="M11.1558 17.7793H11.1324C10.898 17.7793 10.7058 17.5872 10.7058 17.3528V16.6872C10.7058 16.4528 10.898 16.2606 11.1324 16.2606H11.1558C11.3902 16.2606 11.5824 16.4528 11.5824 16.6872V17.3528C11.5824 17.5918 11.3902 17.7793 11.1558 17.7793ZM11.1324 16.5465C11.0527 16.5465 10.9871 16.6122 10.9871 16.6918V17.3575C10.9871 17.4372 11.0527 17.5028 11.1324 17.5028H11.1558C11.2355 17.5028 11.3011 17.4372 11.3011 17.3575V16.6918C11.3011 16.6122 11.2355 16.5465 11.1558 16.5465H11.1324Z" fill="url(#paint24_linear_222_3655)"/>
<path d="M12.9046 17.7794H12.8812C12.6468 17.7794 12.4546 17.5872 12.4546 17.3529V16.6872C12.4546 16.4529 12.6468 16.2607 12.8812 16.2607H12.9046C13.139 16.2607 13.3312 16.4529 13.3312 16.6872V17.3529C13.3312 17.5919 13.139 17.7794 12.9046 17.7794ZM12.8812 16.5466C12.8015 16.5466 12.7358 16.6122 12.7358 16.6919V17.3576C12.7358 17.4372 12.8015 17.5029 12.8812 17.5029H12.9046C12.9843 17.5029 13.0499 17.4372 13.0499 17.3576V16.6919C13.0499 16.6122 12.9843 16.5466 12.9046 16.5466H12.8812Z" fill="url(#paint25_linear_222_3655)"/>
<path d="M14.0438 17.7793H14.0203C13.7859 17.7793 13.5938 17.5872 13.5938 17.3528V16.6872C13.5938 16.4528 13.7859 16.2606 14.0203 16.2606H14.0438C14.2781 16.2606 14.4703 16.4528 14.4703 16.6872V17.3528C14.4703 17.5918 14.2781 17.7793 14.0438 17.7793ZM14.0203 16.5465C13.9406 16.5465 13.875 16.6122 13.875 16.6918V17.3575C13.875 17.4372 13.9406 17.5028 14.0203 17.5028H14.0438C14.1234 17.5028 14.1891 17.4372 14.1891 17.3575V16.6918C14.1891 16.6122 14.1234 16.5465 14.0438 16.5465H14.0203Z" fill="url(#paint26_linear_222_3655)"/>
<path d="M15.1827 17.7793H15.1592C14.9249 17.7793 14.7327 17.5872 14.7327 17.3528V16.6872C14.7327 16.4528 14.9249 16.2606 15.1592 16.2606H15.1827C15.417 16.2606 15.6092 16.4528 15.6092 16.6872V17.3528C15.6092 17.5918 15.417 17.7793 15.1827 17.7793ZM15.1592 16.5465C15.0795 16.5465 15.0139 16.6122 15.0139 16.6918V17.3575C15.0139 17.4372 15.0795 17.5028 15.1592 17.5028H15.1827C15.2624 17.5028 15.328 17.4372 15.328 17.3575V16.6918C15.328 16.6122 15.2624 16.5465 15.1827 16.5465H15.1592Z" fill="url(#paint27_linear_222_3655)"/>
<path d="M16.3221 17.7793H16.2986C16.0643 17.7793 15.8721 17.5872 15.8721 17.3528V16.6872C15.8721 16.4528 16.0643 16.2606 16.2986 16.2606H16.3221C16.5564 16.2606 16.7486 16.4528 16.7486 16.6872V17.3528C16.7486 17.5918 16.5564 17.7793 16.3221 17.7793ZM16.2986 16.5465C16.2189 16.5465 16.1533 16.6122 16.1533 16.6918V17.3575C16.1533 17.4372 16.2189 17.5028 16.2986 17.5028H16.3221C16.4018 17.5028 16.4674 17.4372 16.4674 17.3575V16.6918C16.4674 16.6122 16.4018 16.5465 16.3221 16.5465H16.2986Z" fill="url(#paint28_linear_222_3655)"/>
<path d="M18.0699 17.7794H18.0464C17.8121 17.7794 17.6199 17.5872 17.6199 17.3529V16.6872C17.6199 16.4529 17.8121 16.2607 18.0464 16.2607H18.0699C18.3042 16.2607 18.4964 16.4529 18.4964 16.6872V17.3529C18.4964 17.5919 18.3042 17.7794 18.0699 17.7794ZM18.0464 16.5466C17.9667 16.5466 17.9011 16.6122 17.9011 16.6919V17.3576C17.9011 17.4372 17.9667 17.5029 18.0464 17.5029H18.0699C18.1496 17.5029 18.2152 17.4372 18.2152 17.3576V16.6919C18.2152 16.6122 18.1496 16.5466 18.0699 16.5466H18.0464Z" fill="url(#paint29_linear_222_3655)"/>
<path d="M19.2093 17.7793H19.1858C18.9515 17.7793 18.7593 17.5872 18.7593 17.3528V16.6872C18.7593 16.4528 18.9515 16.2606 19.1858 16.2606H19.2093C19.4437 16.2606 19.6358 16.4528 19.6358 16.6872V17.3528C19.6358 17.5918 19.4437 17.7793 19.2093 17.7793ZM19.1858 16.5465C19.1062 16.5465 19.0405 16.6122 19.0405 16.6918V17.3575C19.0405 17.4372 19.1062 17.5028 19.1858 17.5028H19.2093C19.289 17.5028 19.3546 17.4372 19.3546 17.3575V16.6918C19.3546 16.6122 19.289 16.5465 19.2093 16.5465H19.1858Z" fill="url(#paint30_linear_222_3655)"/>
<path d="M20.3482 17.7793H20.3248C20.0904 17.7793 19.8982 17.5872 19.8982 17.3528V16.6872C19.8982 16.4528 20.0904 16.2606 20.3248 16.2606H20.3482C20.5826 16.2606 20.7748 16.4528 20.7748 16.6872V17.3528C20.7748 17.5918 20.5826 17.7793 20.3482 17.7793ZM20.3248 16.5465C20.2451 16.5465 20.1794 16.6122 20.1794 16.6918V17.3575C20.1794 17.4372 20.2451 17.5028 20.3248 17.5028H20.3482C20.4279 17.5028 20.4935 17.4372 20.4935 17.3575V16.6918C20.4935 16.6122 20.4279 16.5465 20.3482 16.5465H20.3248Z" fill="url(#paint31_linear_222_3655)"/>
<path d="M21.4871 17.7793H21.4637C21.2293 17.7793 21.0371 17.5872 21.0371 17.3528V16.6872C21.0371 16.4528 21.2293 16.2606 21.4637 16.2606H21.4871C21.7215 16.2606 21.9137 16.4528 21.9137 16.6872V17.3528C21.9137 17.5918 21.7215 17.7793 21.4871 17.7793ZM21.459 16.5465C21.3793 16.5465 21.3137 16.6122 21.3137 16.6918V17.3575C21.3137 17.4372 21.3793 17.5028 21.459 17.5028H21.4824C21.5621 17.5028 21.6277 17.4372 21.6277 17.3575V16.6918C21.6277 16.6122 21.5621 16.5465 21.4824 16.5465H21.459Z" fill="url(#paint32_linear_222_3655)"/>
<path d="M10.7063 7.55148H13.2938V22.528H10.7063V7.55148Z" fill="url(#paint33_linear_222_3655)"/>
<path d="M10.7063 21.1264H13.2938V22.5327H10.7063V21.1264Z" fill="url(#paint34_linear_222_3655)"/>
<path d="M16.3454 6.22501H7.65482C7.42513 6.45469 7.24232 6.71719 7.13451 7.03594C6.94232 7.59844 6.86732 8.24063 7.0642 8.81251C7.16263 9.08907 7.3267 9.34688 7.55638 9.50626C7.6267 9.60469 17.5783 19.5609 20.5689 22.5281H22.4392C23.3017 22.5281 23.9954 21.8297 23.9954 20.9719V13.8797L16.3454 6.22501Z" fill="url(#paint35_linear_222_3655)"/>
<path d="M12.4224 6.79664C12.249 7.38258 11.6349 7.8232 11.1474 8.14664C10.6131 8.50289 10.0271 8.77008 9.46464 9.07477C9.04276 9.30445 8.61151 9.65601 8.11464 9.67008C7.58964 9.68414 7.2287 9.27633 7.06932 8.81227C6.87245 8.24039 6.94745 7.5982 7.13964 7.0357C7.32245 6.50601 7.71151 6.11695 8.1662 5.80758C9.26776 5.05289 10.5709 4.88414 11.8881 4.96383C12.2396 4.98727 12.5959 5.02477 12.9474 5.07164C12.9428 5.06695 12.4271 6.79664 12.4224 6.79664Z" fill="url(#paint36_linear_222_3655)"/>
<path d="M11.1894 5.49826C11.1894 4.88888 10.73 4.28888 10.355 3.83888C9.94722 3.3467 9.45972 2.92482 9.00972 2.47013C8.67222 2.13263 8.35816 1.66857 7.88472 1.51388C7.02691 1.23263 6.79253 2.42326 6.6941 3.01388C6.62378 3.44513 6.59566 3.89513 6.66597 4.33107C6.8066 5.21701 7.39253 5.96701 8.18003 6.38888C9.10347 6.88576 10.1628 7.14357 11.1941 7.30295C11.1894 7.30763 11.1894 5.50295 11.1894 5.49826Z" fill="url(#paint37_linear_222_3655)"/>
<path d="M11.0301 5.99519C11.0301 5.99519 10.0973 3.5155 7.95044 3.5155C7.95513 3.5155 8.14731 5.11394 11.0301 5.99519Z" fill="url(#paint38_linear_222_3655)"/>
<path d="M11.0297 5.99526C11.0297 5.99526 9.21567 4.06401 7.23755 4.88901C7.23755 4.88901 8.02974 6.29058 11.0297 5.99526Z" fill="url(#paint39_linear_222_3655)"/>
<path d="M11.5738 6.79664C11.7473 7.38258 12.3613 7.8232 12.8488 8.14664C13.3832 8.50289 13.9691 8.77008 14.5316 9.07477C14.9535 9.30445 15.3848 9.65601 15.8816 9.67008C16.4066 9.68414 16.7676 9.27633 16.927 8.81227C17.1238 8.24039 17.0488 7.5982 16.8566 7.0357C16.6738 6.50601 16.2848 6.11695 15.8301 5.80758C14.7285 5.05289 13.4254 4.88414 12.1082 4.96383C11.7566 4.98727 11.4004 5.02477 11.0488 5.07164C11.0582 5.06695 11.5738 6.79664 11.5738 6.79664Z" fill="url(#paint40_linear_222_3655)"/>
<path d="M12.8066 5.4982C12.8066 4.88882 13.266 4.28882 13.641 3.83882C14.0535 3.34663 14.5363 2.92007 14.991 2.47007C15.3285 2.13257 15.6426 1.66851 16.116 1.51382C16.9738 1.23257 17.2082 2.4232 17.3066 3.01382C17.377 3.44507 17.4051 3.89507 17.3348 4.33101C17.1941 5.21695 16.6082 5.96695 15.8207 6.38882C14.8973 6.8857 13.8379 7.14351 12.8066 7.30288C12.8066 7.30757 12.8066 5.50288 12.8066 5.4982Z" fill="url(#paint41_linear_222_3655)"/>
<path d="M12.0004 8.21694C12.966 8.21694 13.7488 7.43413 13.7488 6.4685C13.7488 5.50286 12.966 4.72006 12.0004 4.72006C11.0348 4.72006 10.252 5.50286 10.252 6.4685C10.252 7.43413 11.0348 8.21694 12.0004 8.21694Z" fill="url(#paint42_linear_222_3655)"/>
<path d="M12.0004 7.72961C12.6968 7.72961 13.2614 7.16507 13.2614 6.46867C13.2614 5.77227 12.6968 5.20773 12.0004 5.20773C11.304 5.20773 10.7395 5.77227 10.7395 6.46867C10.7395 7.16507 11.304 7.72961 12.0004 7.72961Z" fill="url(#paint43_linear_222_3655)"/>
<path d="M12.9661 5.99519C12.9661 5.99519 13.8989 3.5155 16.0458 3.5155C16.0458 3.5155 15.8536 5.11394 12.9661 5.99519Z" fill="url(#paint44_linear_222_3655)"/>
<path d="M12.9661 5.99526C12.9661 5.99526 14.7801 4.06401 16.7583 4.88901C16.7629 4.88901 15.9708 6.29058 12.9661 5.99526Z" fill="url(#paint45_linear_222_3655)"/>
<defs>
<linearGradient id="paint0_linear_222_3655" x1="-0.0869999" y1="6.72468" x2="23.6576" y2="21.7565" gradientUnits="userSpaceOnUse">
<stop stop-color="#7B7DA1"/>
<stop offset="0.3104" stop-color="#6D6F93"/>
<stop offset="0.8987" stop-color="#494C6D"/>
<stop offset="1" stop-color="#424566"/>
</linearGradient>
<linearGradient id="paint1_linear_222_3655" x1="0.0698907" y1="7.38267" x2="23.0843" y2="22.0674" gradientUnits="userSpaceOnUse">
<stop stop-color="#8587AE"/>
<stop offset="0.3104" stop-color="#7779A0"/>
<stop offset="0.8987" stop-color="#51557A"/>
<stop offset="1" stop-color="#4A4E73"/>
</linearGradient>
<linearGradient id="paint2_linear_222_3655" x1="11.9999" y1="22.6405" x2="11.9999" y2="21.0925" gradientUnits="userSpaceOnUse">
<stop stop-color="#32365C"/>
<stop offset="1" stop-color="#32365C" stop-opacity="0"/>
</linearGradient>
<linearGradient id="paint3_linear_222_3655" x1="24.0219" y1="14.3765" x2="22.5296" y2="14.3765" gradientUnits="userSpaceOnUse">
<stop stop-color="#32365C"/>
<stop offset="1" stop-color="#32365C" stop-opacity="0"/>
</linearGradient>
<linearGradient id="paint4_linear_222_3655" x1="11.9999" y1="6.11194" x2="11.9999" y2="7.66003" gradientUnits="userSpaceOnUse">
<stop stop-color="#A1A4C7"/>
<stop offset="1" stop-color="#A1A4C7" stop-opacity="0"/>
</linearGradient>
<linearGradient id="paint5_linear_222_3655" x1="-0.022125" y1="14.3765" x2="1.28508" y2="14.3765" gradientUnits="userSpaceOnUse">
<stop stop-color="#A1A4C7"/>
<stop offset="1" stop-color="#A1A4C7" stop-opacity="0"/>
</linearGradient>
<linearGradient id="paint6_linear_222_3655" x1="1.00032" y1="9.88749" x2="6.05865" y2="14.9458" gradientUnits="userSpaceOnUse">
<stop stop-color="#7B7DA1"/>
<stop offset="0.4958" stop-color="#616386"/>
<stop offset="1" stop-color="#424566"/>
</linearGradient>
<linearGradient id="paint7_linear_222_3655" x1="2.31613" y1="11.5737" x2="5.43576" y2="13.9513" gradientUnits="userSpaceOnUse">
<stop stop-color="#FFED81"/>
<stop offset="0.2348" stop-color="#FFD968"/>
<stop offset="0.7302" stop-color="#FFA629"/>
<stop offset="1" stop-color="#FF8804"/>
</linearGradient>
<linearGradient id="paint8_linear_222_3655" x1="2.3241" y1="11.6291" x2="5.44935" y2="13.9116" gradientUnits="userSpaceOnUse">
<stop stop-color="#EFA33D"/>
<stop offset="1" stop-color="#A05223"/>
</linearGradient>
<linearGradient id="paint9_linear_222_3655" x1="5.62209" y1="12.7602" x2="5.22295" y2="12.7602" gradientUnits="userSpaceOnUse">
<stop stop-color="#FF8804"/>
<stop offset="1" stop-color="#FF8804" stop-opacity="0"/>
</linearGradient>
<linearGradient id="paint10_linear_222_3655" x1="3.8727" y1="14.1172" x2="3.8727" y2="13.6857" gradientUnits="userSpaceOnUse">
<stop stop-color="#FF8804"/>
<stop offset="1" stop-color="#FF8804" stop-opacity="0"/>
</linearGradient>
<linearGradient id="paint11_linear_222_3655" x1="2.12381" y1="12.7602" x2="2.46454" y2="12.7602" gradientUnits="userSpaceOnUse">
<stop stop-color="#FFF0A9"/>
<stop offset="1" stop-color="#FFF0A9" stop-opacity="0"/>
</linearGradient>
<linearGradient id="paint12_linear_222_3655" x1="3.87295" y1="11.4032" x2="3.87295" y2="11.8347" gradientUnits="userSpaceOnUse">
<stop stop-color="#FFF0A9"/>
<stop offset="1" stop-color="#FFF0A9" stop-opacity="0"/>
</linearGradient>
<linearGradient id="paint13_linear_222_3655" x1="19.8787" y1="11.757" x2="21.8895" y2="13.7678" gradientUnits="userSpaceOnUse">
<stop stop-color="#E9EDFF"/>
<stop offset="1" stop-color="#C4CBFF"/>
</linearGradient>
<linearGradient id="paint14_linear_222_3655" x1="7.06176" y1="19.8636" x2="7.06176" y2="20.1569" gradientUnits="userSpaceOnUse">
<stop stop-color="#C4CBFF"/>
<stop offset="0.5251" stop-color="#E9EDFF"/>
<stop offset="1" stop-color="#C4CBFF"/>
</linearGradient>
<linearGradient id="paint15_linear_222_3655" x1="19.5092" y1="19.8577" x2="19.5092" y2="20.1737" gradientUnits="userSpaceOnUse">
<stop stop-color="#C4CBFF"/>
<stop offset="0.5251" stop-color="#E9EDFF"/>
<stop offset="1" stop-color="#C4CBFF"/>
</linearGradient>
<linearGradient id="paint16_linear_222_3655" x1="2.04951" y1="8.58955" x2="4.73634" y2="9.40339" gradientUnits="userSpaceOnUse">
<stop stop-color="#E9EDFF"/>
<stop offset="1" stop-color="#C4CBFF"/>
</linearGradient>
<linearGradient id="paint17_linear_222_3655" x1="2.12367" y1="17.0229" x2="3.00131" y2="17.0229" gradientUnits="userSpaceOnUse">
<stop stop-color="#C4CBFF"/>
<stop offset="0.5251" stop-color="#E9EDFF"/>
<stop offset="1" stop-color="#C4CBFF"/>
</linearGradient>
<linearGradient id="paint18_linear_222_3655" x1="3.26259" y1="17.0228" x2="4.14023" y2="17.0228" gradientUnits="userSpaceOnUse">
<stop stop-color="#C4CBFF"/>
<stop offset="0.5251" stop-color="#E9EDFF"/>
<stop offset="1" stop-color="#C4CBFF"/>
</linearGradient>
<linearGradient id="paint19_linear_222_3655" x1="4.40098" y1="17.0228" x2="5.27862" y2="17.0228" gradientUnits="userSpaceOnUse">
<stop stop-color="#C4CBFF"/>
<stop offset="0.5251" stop-color="#E9EDFF"/>
<stop offset="1" stop-color="#C4CBFF"/>
</linearGradient>
<linearGradient id="paint20_linear_222_3655" x1="5.54015" y1="17.0228" x2="6.41775" y2="17.0228" gradientUnits="userSpaceOnUse">
<stop stop-color="#C4CBFF"/>
<stop offset="0.5251" stop-color="#E9EDFF"/>
<stop offset="1" stop-color="#C4CBFF"/>
</linearGradient>
<linearGradient id="paint21_linear_222_3655" x1="7.28863" y1="17.0228" x2="8.16627" y2="17.0228" gradientUnits="userSpaceOnUse">
<stop stop-color="#C4CBFF"/>
<stop offset="0.5251" stop-color="#E9EDFF"/>
<stop offset="1" stop-color="#C4CBFF"/>
</linearGradient>
<linearGradient id="paint22_linear_222_3655" x1="8.42727" y1="17.0227" x2="9.30491" y2="17.0227" gradientUnits="userSpaceOnUse">
<stop stop-color="#C4CBFF"/>
<stop offset="0.5251" stop-color="#E9EDFF"/>
<stop offset="1" stop-color="#C4CBFF"/>
</linearGradient>
<linearGradient id="paint23_linear_222_3655" x1="9.56644" y1="17.0227" x2="10.4441" y2="17.0227" gradientUnits="userSpaceOnUse">
<stop stop-color="#C4CBFF"/>
<stop offset="0.5251" stop-color="#E9EDFF"/>
<stop offset="1" stop-color="#C4CBFF"/>
</linearGradient>
<linearGradient id="paint24_linear_222_3655" x1="10.7048" y1="17.0227" x2="11.5825" y2="17.0227" gradientUnits="userSpaceOnUse">
<stop stop-color="#C4CBFF"/>
<stop offset="0.5251" stop-color="#E9EDFF"/>
<stop offset="1" stop-color="#C4CBFF"/>
</linearGradient>
<linearGradient id="paint25_linear_222_3655" x1="12.4538" y1="17.0228" x2="13.3314" y2="17.0228" gradientUnits="userSpaceOnUse">
<stop stop-color="#C4CBFF"/>
<stop offset="0.5251" stop-color="#E9EDFF"/>
<stop offset="1" stop-color="#C4CBFF"/>
</linearGradient>
<linearGradient id="paint26_linear_222_3655" x1="13.5927" y1="17.0227" x2="14.4704" y2="17.0227" gradientUnits="userSpaceOnUse">
<stop stop-color="#C4CBFF"/>
<stop offset="0.5251" stop-color="#E9EDFF"/>
<stop offset="1" stop-color="#C4CBFF"/>
</linearGradient>
<linearGradient id="paint27_linear_222_3655" x1="14.7314" y1="17.0227" x2="15.609" y2="17.0227" gradientUnits="userSpaceOnUse">
<stop stop-color="#C4CBFF"/>
<stop offset="0.5251" stop-color="#E9EDFF"/>
<stop offset="1" stop-color="#C4CBFF"/>
</linearGradient>
<linearGradient id="paint28_linear_222_3655" x1="15.8705" y1="17.0227" x2="16.7482" y2="17.0227" gradientUnits="userSpaceOnUse">
<stop stop-color="#C4CBFF"/>
<stop offset="0.5251" stop-color="#E9EDFF"/>
<stop offset="1" stop-color="#C4CBFF"/>
</linearGradient>
<linearGradient id="paint29_linear_222_3655" x1="17.6185" y1="17.0228" x2="18.4962" y2="17.0228" gradientUnits="userSpaceOnUse">
<stop stop-color="#C4CBFF"/>
<stop offset="0.5251" stop-color="#E9EDFF"/>
<stop offset="1" stop-color="#C4CBFF"/>
</linearGradient>
<linearGradient id="paint30_linear_222_3655" x1="18.7577" y1="17.0227" x2="19.6353" y2="17.0227" gradientUnits="userSpaceOnUse">
<stop stop-color="#C4CBFF"/>
<stop offset="0.5251" stop-color="#E9EDFF"/>
<stop offset="1" stop-color="#C4CBFF"/>
</linearGradient>
<linearGradient id="paint31_linear_222_3655" x1="19.8963" y1="17.0227" x2="20.774" y2="17.0227" gradientUnits="userSpaceOnUse">
<stop stop-color="#C4CBFF"/>
<stop offset="0.5251" stop-color="#E9EDFF"/>
<stop offset="1" stop-color="#C4CBFF"/>
</linearGradient>
<linearGradient id="paint32_linear_222_3655" x1="21.035" y1="17.0227" x2="21.9126" y2="17.0227" gradientUnits="userSpaceOnUse">
<stop stop-color="#C4CBFF"/>
<stop offset="0.5251" stop-color="#E9EDFF"/>
<stop offset="1" stop-color="#C4CBFF"/>
</linearGradient>
<linearGradient id="paint33_linear_222_3655" x1="12.0016" y1="7.28012" x2="12.0016" y2="22.7055" gradientUnits="userSpaceOnUse">
<stop stop-color="#FF7044"/>
<stop offset="0.2064" stop-color="#FE6A40"/>
<stop offset="0.4848" stop-color="#FD5935"/>
<stop offset="0.8029" stop-color="#FA3D22"/>
<stop offset="0.9959" stop-color="#F82814"/>
</linearGradient>
<linearGradient id="paint34_linear_222_3655" x1="12.0016" y1="22.6342" x2="12.0016" y2="21.1992" gradientUnits="userSpaceOnUse">
<stop offset="1.7215e-06" stop-color="#F27F00"/>
<stop offset="1" stop-color="#F27F00" stop-opacity="0"/>
</linearGradient>
<linearGradient id="paint35_linear_222_3655" x1="8.82604" y1="4.74976" x2="17.2916" y2="13.2152" gradientUnits="userSpaceOnUse">
<stop stop-color="#32365C"/>
<stop offset="1" stop-color="#32365C" stop-opacity="0"/>
</linearGradient>
<linearGradient id="paint36_linear_222_3655" x1="9.94646" y1="5.57123" x2="9.94646" y2="9.59827" gradientUnits="userSpaceOnUse">
<stop stop-color="#FF7044"/>
<stop offset="0.2064" stop-color="#FE6A40"/>
<stop offset="0.4848" stop-color="#FD5935"/>
<stop offset="0.8029" stop-color="#FA3D22"/>
<stop offset="0.9959" stop-color="#F82814"/>
</linearGradient>
<linearGradient id="paint37_linear_222_3655" x1="8.90782" y1="1.54013" x2="8.90782" y2="7.04837" gradientUnits="userSpaceOnUse">
<stop stop-color="#FF7044"/>
<stop offset="0.2064" stop-color="#FE6A40"/>
<stop offset="0.4848" stop-color="#FD5935"/>
<stop offset="0.8029" stop-color="#FA3D22"/>
<stop offset="0.9959" stop-color="#F82814"/>
</linearGradient>
<linearGradient id="paint38_linear_222_3655" x1="9.9894" y1="4.06814" x2="9.57138" y2="4.64495" gradientUnits="userSpaceOnUse">
<stop stop-color="#EF0B00"/>
<stop offset="0.8157" stop-color="#EF0B00" stop-opacity="0"/>
</linearGradient>
<linearGradient id="paint39_linear_222_3655" x1="9.32299" y1="4.62527" x2="9.15856" y2="5.31899" gradientUnits="userSpaceOnUse">
<stop stop-color="#EF0B00"/>
<stop offset="0.8157" stop-color="#EF0B00" stop-opacity="0"/>
</linearGradient>
<linearGradient id="paint40_linear_222_3655" x1="14.0544" y1="5.57123" x2="14.0544" y2="9.59827" gradientUnits="userSpaceOnUse">
<stop stop-color="#FF7044"/>
<stop offset="0.2064" stop-color="#FE6A40"/>
<stop offset="0.4848" stop-color="#FD5935"/>
<stop offset="0.8029" stop-color="#FA3D22"/>
<stop offset="0.9959" stop-color="#F82814"/>
</linearGradient>
<linearGradient id="paint41_linear_222_3655" x1="15.0928" y1="1.54007" x2="15.0928" y2="7.04831" gradientUnits="userSpaceOnUse">
<stop stop-color="#FF7044"/>
<stop offset="0.2064" stop-color="#FE6A40"/>
<stop offset="0.4848" stop-color="#FD5935"/>
<stop offset="0.8029" stop-color="#FA3D22"/>
<stop offset="0.9959" stop-color="#F82814"/>
</linearGradient>
<linearGradient id="paint42_linear_222_3655" x1="12.0003" y1="5.18534" x2="12.0003" y2="8.16172" gradientUnits="userSpaceOnUse">
<stop stop-color="#FF7044"/>
<stop offset="0.2064" stop-color="#FE6A40"/>
<stop offset="0.4848" stop-color="#FD5935"/>
<stop offset="0.8029" stop-color="#FA3D22"/>
<stop offset="0.9959" stop-color="#F82814"/>
</linearGradient>
<linearGradient id="paint43_linear_222_3655" x1="10.1137" y1="4.58176" x2="11.7894" y2="6.25745" gradientUnits="userSpaceOnUse">
<stop stop-color="#FFB7A3"/>
<stop offset="1" stop-color="#FFB7A3" stop-opacity="0"/>
</linearGradient>
<linearGradient id="paint44_linear_222_3655" x1="14.0076" y1="4.06824" x2="14.4257" y2="4.64506" gradientUnits="userSpaceOnUse">
<stop stop-color="#EF0B00"/>
<stop offset="0.8157" stop-color="#EF0B00" stop-opacity="0"/>
</linearGradient>
<linearGradient id="paint45_linear_222_3655" x1="14.6811" y1="4.62739" x2="14.8456" y2="5.32106" gradientUnits="userSpaceOnUse">
<stop stop-color="#EF0B00"/>
<stop offset="0.8157" stop-color="#EF0B00" stop-opacity="0"/>
</linearGradient>
</defs>
</svg>
