<svg width="21" height="16" viewBox="0 0 21 16" fill="none" xmlns="http://www.w3.org/2000/svg">
<path d="M13.1071 8.0519L14.2999 6.85917C14.3866 7.18385 14.4375 7.52329 14.4375 7.87504C14.4375 10.0462 12.6712 11.8125 10.5 11.8125C10.1482 11.8125 9.8088 11.7617 9.48413 11.6749L10.6769 10.4822C11.981 10.3932 13.0182 9.35603 13.1071 8.0519ZM20.9173 7.55627C20.8366 7.41107 19.6918 5.40508 17.454 3.70506L16.4989 4.66007C18.1307 5.85986 19.1646 7.25915 19.5717 7.87602C18.7939 9.06039 15.7426 13.125 10.5 13.125C9.71381 13.125 8.98275 13.0245 8.29484 12.864L7.21645 13.9424C8.20788 14.2464 9.29759 14.4375 10.5 14.4375C17.3698 14.4375 20.7757 8.4486 20.9173 8.19381C21.0276 7.99546 21.0276 7.75462 20.9173 7.55627ZM18.1827 1.12026L3.74522 15.5578C3.61709 15.6859 3.44909 15.75 3.28125 15.75C3.11341 15.75 2.94541 15.6859 2.81728 15.5578C2.56085 15.3013 2.56085 14.8861 2.81728 14.6298L4.65413 12.793C1.68459 11.0003 0.175711 8.36132 0.0826875 8.19381C-0.0275625 7.99546 -0.0275625 7.75445 0.0826875 7.5561C0.224273 7.30148 3.63021 1.31254 10.5 1.31254C12.2763 1.31254 13.8149 1.71778 15.1302 2.31693L17.2548 0.192322C17.5112 -0.0641074 17.9265 -0.0641074 18.1827 0.192322C18.439 0.448752 18.4391 0.863994 18.1827 1.12026ZM5.63276 11.8143L7.29422 10.1529C6.83534 9.5091 6.5625 8.72406 6.5625 7.87504C6.5625 5.70384 8.3288 3.93754 10.5 3.93754C11.349 3.93754 12.1341 4.21038 12.7778 4.6691L14.1214 3.32559C13.0599 2.9005 11.8537 2.62504 10.5 2.62504C5.25738 2.62504 2.20615 6.68969 1.42849 7.87406C1.92232 8.62251 3.34179 10.5171 5.63276 11.8143ZM8.24693 9.20001L11.825 5.62197C11.4347 5.39146 10.9853 5.25004 10.5 5.25004C9.05264 5.25004 7.875 6.42768 7.875 7.87504C7.875 8.36034 8.01642 8.8097 8.24693 9.20001Z" fill="#111111"/>
</svg>
