<svg width="19" height="19" viewBox="0 0 19 19" fill="none" xmlns="http://www.w3.org/2000/svg">
<mask id="mask0_222_6188" style="mask-type:luminance" maskUnits="userSpaceOnUse" x="0" y="-1" width="19" height="20">
<path d="M0 -0.000244141H19V18.9998H0V-0.000244141Z" fill="white"/>
</mask>
<g mask="url(#mask0_222_6188)">
<path d="M1.05272 5.06067C0.74267 4.85409 0.556641 4.50648 0.556641 4.13416C0.556641 3.47596 1.09027 2.94143 1.74852 2.94143H17.2514C17.9097 2.94143 18.4433 3.47503 18.4433 4.13324C18.4433 4.50556 18.2573 4.85409 17.9472 5.06067C16.4343 6.06949 11.8756 9.10842 10.1615 10.2514C9.76084 10.5185 9.23912 10.5185 8.83849 10.2514C7.12433 9.10842 2.56563 6.06949 1.05272 5.06067Z" stroke="#111111" stroke-width="1.1" stroke-miterlimit="10" stroke-linecap="round" stroke-linejoin="round"/>
<path d="M0.556641 4.1927C0.556641 4.56502 0.74267 4.91262 1.05272 5.11921C2.56563 6.12803 7.12433 9.16695 8.83849 10.3099C9.23912 10.577 9.76084 10.577 10.1615 10.3099C11.8756 9.16695 16.4343 6.12803 17.9472 5.11921C18.2573 4.91262 18.4433 4.56409 18.4433 4.19177" stroke="#FF8303" stroke-width="1.1" stroke-miterlimit="10" stroke-linecap="round" stroke-linejoin="round"/>
<path d="M0.556641 4.13386V14.8659C0.556641 15.1821 0.682145 15.4853 0.906025 15.7089C1.12961 15.9328 1.43279 16.0583 1.74908 16.0583H17.2508C17.5671 16.0583 17.8703 15.9328 18.0939 15.7089C18.3178 15.4853 18.4433 15.1821 18.4433 14.8659V4.13386" stroke="#111111" stroke-width="1.1" stroke-miterlimit="10" stroke-linecap="round" stroke-linejoin="round"/>
</g>
</svg>
