<svg width="26" height="22" viewBox="0 0 26 22" fill="none" xmlns="http://www.w3.org/2000/svg">
<path d="M19.7568 11.9166C19.1141 11.9166 18.4857 12.1072 17.9512 12.4644C17.4168 12.8215 17.0002 13.329 16.7542 13.9229C16.5082 14.5168 16.4439 15.1702 16.5693 15.8007C16.6947 16.4311 17.0042 17.0102 17.4587 17.4647C17.9133 17.9192 18.4924 18.2288 19.1228 18.3542C19.7532 18.4796 20.4067 18.4152 21.0006 18.1692C21.5944 17.9233 22.102 17.5067 22.4591 16.9722C22.8162 16.4378 23.0068 15.8094 23.0068 15.1666C23.0059 14.305 22.6632 13.4789 22.0539 12.8696C21.4446 12.2603 20.6185 11.9176 19.7568 11.9166ZM19.7568 17.3333C19.3283 17.3333 18.9094 17.2062 18.5531 16.9681C18.1968 16.7301 17.9191 16.3917 17.7551 15.9958C17.5911 15.5999 17.5482 15.1642 17.6318 14.7439C17.7154 14.3236 17.9218 13.9376 18.2248 13.6346C18.5278 13.3315 18.9139 13.1252 19.3341 13.0416C19.7544 12.958 20.1901 13.0009 20.586 13.1649C20.9819 13.3289 21.3203 13.6066 21.5584 13.9629C21.7964 14.3192 21.9235 14.7381 21.9235 15.1666C21.9229 15.7411 21.6944 16.2918 21.2882 16.698C20.882 17.1042 20.3313 17.3326 19.7568 17.3333Z" fill="#FF8303"/>
<path d="M25.0845 16.0931C25.203 15.4813 25.203 14.8524 25.0845 14.2406L25.8346 13.5154C25.9215 13.4315 25.9778 13.3209 25.9945 13.2012C26.0112 13.0815 25.9873 12.9597 25.9267 12.8552L24.8433 10.9785C24.7832 10.8736 24.6897 10.792 24.5776 10.7467C24.4656 10.7014 24.3416 10.6951 24.2255 10.7288L23.2183 11.0171C22.7431 10.6234 22.2033 10.3149 21.623 10.1051L21.3659 9.07736C21.3365 8.9601 21.2689 8.85602 21.1736 8.78164C21.0783 8.70727 20.9609 8.66687 20.84 8.66687H18.6734C18.5525 8.66688 18.4351 8.70729 18.3399 8.78166C18.2446 8.85603 18.1769 8.96011 18.1476 9.07736L17.8905 10.1051C17.3097 10.3147 16.7696 10.6232 16.2941 11.0171L15.2869 10.7288C15.1708 10.6949 15.0468 10.7011 14.9347 10.7464C14.8226 10.7917 14.729 10.8735 14.6691 10.9785L13.5857 12.8553C13.5251 12.9598 13.5012 13.0816 13.5179 13.2012C13.5346 13.3209 13.5909 13.4315 13.6778 13.5154L14.4279 14.2406C14.3108 14.8526 14.3108 15.4812 14.4279 16.0931L13.6778 16.8184C13.5909 16.9023 13.5346 17.0129 13.5179 17.1326C13.5012 17.2522 13.5251 17.374 13.5857 17.4785L14.6691 19.3553C14.7292 19.4601 14.8228 19.5416 14.9348 19.5869C15.0469 19.6322 15.1708 19.6385 15.2869 19.605L16.2941 19.3167C16.7696 19.7106 17.3097 20.0191 17.8905 20.2286L18.1476 21.2564C18.1769 21.3737 18.2446 21.4777 18.3399 21.5521C18.4351 21.6265 18.5525 21.6669 18.6734 21.6669H20.84C20.9609 21.6669 21.0783 21.6265 21.1736 21.5521C21.2688 21.4777 21.3365 21.3736 21.3658 21.2564L21.6229 20.2286C22.2033 20.0188 22.743 19.7103 23.2183 19.3167L24.2255 19.6049C24.3415 19.6383 24.4654 19.6318 24.5774 19.5866C24.6894 19.5413 24.783 19.4599 24.8433 19.3553L25.9266 17.4785C25.9873 17.374 26.0112 17.2522 25.9945 17.1325C25.9778 17.0129 25.9215 16.9022 25.8346 16.8183L25.0845 16.0931ZM24.09 15.1669C24.087 15.4989 24.0451 15.8295 23.9652 16.1518C23.944 16.2431 23.9469 16.3382 23.9734 16.428C23.9999 16.5178 24.0492 16.5993 24.1165 16.6644L24.7777 17.3034L24.1176 18.447L23.231 18.1937C23.141 18.1676 23.0457 18.1654 22.9546 18.1874C22.8635 18.2094 22.7797 18.2548 22.7115 18.319C22.2275 18.7699 21.6456 19.1026 21.0114 19.2908C20.9219 19.3182 20.841 19.3682 20.7765 19.436C20.712 19.5039 20.6661 19.5872 20.6433 19.678L20.4169 20.5835H19.0965L18.8701 19.6779C18.8473 19.5872 18.8014 19.5038 18.7369 19.436C18.6724 19.3682 18.5915 19.3181 18.502 19.2907C17.8674 19.1028 17.285 18.7701 16.8008 18.319C16.7326 18.2548 16.6488 18.2094 16.5577 18.1875C16.4666 18.1655 16.3714 18.1676 16.2813 18.1936L15.3948 18.447L14.7346 17.3034L15.3958 16.6644C15.4631 16.5992 15.5125 16.5178 15.539 16.428C15.5655 16.3382 15.5683 16.243 15.5471 16.1518C15.3821 15.5055 15.3821 14.8282 15.5471 14.1819C15.5683 14.0907 15.5655 13.9955 15.539 13.9057C15.5125 13.8159 15.4631 13.7344 15.3958 13.6693L14.7346 13.0303L15.3948 11.8867L16.2813 12.1401C16.3714 12.166 16.4666 12.168 16.5576 12.1461C16.6487 12.1241 16.7325 12.0788 16.8008 12.0147C17.285 11.5635 17.8674 11.2309 18.502 11.0429C18.5915 11.0156 18.6724 10.9655 18.7369 10.8977C18.8014 10.8299 18.8473 10.7465 18.8701 10.6557L19.0965 9.7502H20.4169L20.6433 10.6558C20.6661 10.7466 20.712 10.8299 20.7765 10.8977C20.841 10.9656 20.9219 11.0156 21.0115 11.043C21.6456 11.2312 22.2275 11.5638 22.7116 12.0148C22.7798 12.0789 22.8636 12.1242 22.9547 12.1462C23.0458 12.1682 23.141 12.1661 23.231 12.1401L24.1176 11.8868L24.7777 13.0304L24.1165 13.6694C24.0492 13.7345 23.9999 13.8159 23.9734 13.9058C23.9469 13.9956 23.9441 14.0907 23.9652 14.182C24.0451 14.5043 24.087 14.8348 24.09 15.1669Z" fill="#FF8303"/>
<path d="M11.375 16.2501H2.16667C1.87946 16.2498 1.60413 16.1355 1.40105 15.9324C1.19796 15.7293 1.08371 15.454 1.08333 15.1668V7.58346H22.75V8.12513C22.75 8.26879 22.8071 8.40656 22.9087 8.50815C23.0103 8.60973 23.148 8.6668 23.2917 8.6668C23.4353 8.6668 23.5731 8.60973 23.6747 8.50815C23.7763 8.40656 23.8334 8.26879 23.8334 8.12513V2.16679C23.8328 1.59233 23.6043 1.04156 23.1981 0.635358C22.7919 0.229153 22.2411 0.000695671 21.6667 0.00012207H2.16667C1.59221 0.000695671 1.04144 0.229153 0.635236 0.635358C0.229031 1.04156 0.0005736 1.59233 0 2.16679L0 15.1668C0.0005736 15.7413 0.229031 16.292 0.635236 16.6982C1.04144 17.1044 1.59221 17.3329 2.16667 17.3335H11.375C11.5187 17.3335 11.6564 17.2764 11.758 17.1748C11.8596 17.0732 11.9167 16.9355 11.9167 16.7918C11.9167 16.6481 11.8596 16.5104 11.758 16.4088C11.6564 16.3072 11.5187 16.2501 11.375 16.2501ZM1.08333 2.16679C1.08371 1.87959 1.19796 1.60425 1.40105 1.40117C1.60413 1.19809 1.87946 1.08383 2.16667 1.08346H21.6667C21.9539 1.08383 22.2292 1.19809 22.4323 1.40117C22.6354 1.60425 22.7496 1.87959 22.75 2.16679V3.25012H1.08333V2.16679ZM1.08333 4.33346H22.75V6.50013H1.08333V4.33346Z" fill="#111111"/>
</svg>
