<svg width="25" height="15" viewBox="0 0 25 15" fill="none" xmlns="http://www.w3.org/2000/svg">
<path d="M15.4017 13.2899L8.84375 13.2899L8.84375 1.5918L15.4017 1.5918L15.4017 13.2899Z" fill="#FF5F00"/>
<path d="M9.26397 7.4398C9.26397 5.06677 10.3833 2.95293 12.1265 1.59073C10.8518 0.594618 9.243 6.15494e-05 7.49453 6.14521e-05C3.35535 6.12218e-05 6.42521e-07 3.33091 4.13917e-07 7.4398C1.85317e-07 11.5486 3.35535 14.8795 7.49453 14.8795C9.243 14.8795 10.8518 14.2849 12.1265 13.2888C10.3833 11.9266 9.26397 9.81277 9.26397 7.4398Z" fill="#EB001B"/>
<path d="M24.2461 7.43974C24.2461 11.5486 20.8908 14.8794 16.7516 14.8794C15.0031 14.8794 13.3944 14.2849 12.1191 13.2887C13.8628 11.9266 14.9822 9.81271 14.9822 7.43974C14.9822 5.06671 13.8628 2.95287 12.1191 1.59067C13.3944 0.594556 15.0031 1.60454e-07 16.7516 2.57733e-07C20.8908 4.88022e-07 24.2461 3.33085 24.2461 7.43974Z" fill="#F79E1B"/>
</svg>
