<svg width="17" height="16" viewBox="0 0 17 16" fill="none" xmlns="http://www.w3.org/2000/svg">
<path fill-rule="evenodd" clip-rule="evenodd" d="M1.56055 6.82932V15.4147C1.56055 15.7378 1.82279 16.0001 2.14591 16.0001H14.6337C14.9568 16.0001 15.2191 15.7378 15.2191 15.4147V6.82932C15.2191 6.5062 14.9568 6.24396 14.6337 6.24396C14.3106 6.24396 14.0484 6.5062 14.0484 6.82932V14.8293H2.73128V6.82932C2.73128 6.5062 2.46903 6.24396 2.14591 6.24396C1.82279 6.24396 1.56055 6.5062 1.56055 6.82932Z" fill="#111111"/>
<path fill-rule="evenodd" clip-rule="evenodd" d="M6.82874 9.75616C6.4666 9.75616 6.11928 9.89977 5.86328 10.1566C5.6065 10.4126 5.46289 10.7599 5.46289 11.122V15.4147C5.46289 15.7378 5.72513 16.0001 6.04826 16.0001H10.7312C11.0543 16.0001 11.3165 15.7378 11.3165 15.4147V11.122C11.3165 10.7599 11.1729 10.4126 10.9162 10.1566C10.6602 9.89977 10.3128 9.75616 9.9507 9.75616H6.82874ZM6.82874 10.9269H9.9507C10.0022 10.9269 10.0522 10.9472 10.0888 10.9839C10.1255 11.0206 10.1458 11.0705 10.1458 11.122V14.8293H6.63362V11.122C6.63362 11.0705 6.65391 11.0206 6.6906 10.9839C6.72728 10.9472 6.77723 10.9269 6.82874 10.9269Z" fill="#FF8303"/>
<path fill-rule="evenodd" clip-rule="evenodd" d="M16.1951 14.8293H0.585366C0.262244 14.8293 0 15.0916 0 15.4147C0 15.7378 0.262244 16 0.585366 16H16.1951C16.5182 16 16.7805 15.7378 16.7805 15.4147C16.7805 15.0916 16.5182 14.8293 16.1951 14.8293Z" fill="#111111"/>
<path fill-rule="evenodd" clip-rule="evenodd" d="M13.2149 6.10352e-05C11.4463 6.10352e-05 5.33349 6.10352e-05 3.56491 6.10352e-05C3.04823 6.10352e-05 2.57525 0.291963 2.34345 0.754793C1.87203 1.6984 0.762958 3.91655 0.396128 4.74855C0.205689 5.13879 0.198665 5.59616 0.376616 5.99577C0.380519 6.00435 0.384421 6.01294 0.389104 6.02152C0.807445 6.84806 1.66442 7.41469 2.6533 7.41469C3.41584 7.41469 4.10032 7.07752 4.56549 6.54367C5.03066 7.07752 5.71515 7.41469 6.47769 7.41469C7.24022 7.41469 7.92471 7.07752 8.38988 6.54367C8.85505 7.07752 9.53954 7.41469 10.3021 7.41469C11.0646 7.41469 11.7491 7.07752 12.2143 6.54367C12.6794 7.07752 13.3639 7.41469 14.1265 7.41469C15.1005 7.41469 15.9497 6.86289 16.4141 6.07069C16.425 6.05274 16.4344 6.03323 16.4437 6.01372C16.6295 5.59694 16.6186 5.11928 16.4141 4.71109L14.4363 0.754793C14.2045 0.291963 13.7315 6.10352e-05 13.2149 6.10352e-05ZM3.56491 1.17079H13.2149C13.2882 1.17079 13.3561 1.21216 13.3889 1.2785L15.3674 5.23557C15.4104 5.32065 15.4166 5.41899 15.3854 5.50796C15.12 5.93957 14.6595 6.24396 14.1265 6.24396C13.4662 6.24396 12.9144 5.77489 12.7879 5.15206C12.7325 4.87889 12.4921 4.68299 12.2143 4.68299C11.9356 4.68299 11.696 4.87889 11.6406 5.15206C11.5142 5.77489 10.9624 6.24396 10.3021 6.24396C9.64178 6.24396 9.08998 5.77489 8.96354 5.15206C8.90813 4.87889 8.66852 4.68299 8.38988 4.68299C8.11125 4.68299 7.87164 4.87889 7.81622 5.15206C7.68979 5.77489 7.13798 6.24396 6.47769 6.24396C5.8174 6.24396 5.26559 5.77489 5.13915 5.15206C5.08374 4.87889 4.84413 4.68299 4.56549 4.68299C4.28764 4.68299 4.04725 4.87889 3.99184 5.15206C3.8654 5.77489 3.31359 6.24396 2.6533 6.24396C2.12881 6.24396 1.67223 5.9466 1.44354 5.51187C1.40842 5.42523 1.41232 5.33313 1.45135 5.25508C1.45525 5.2465 1.45993 5.23791 1.46384 5.22933C1.82208 4.4145 2.92335 2.21352 3.39086 1.2785C3.42364 1.21216 3.49154 1.17079 3.56491 1.17079Z" fill="#111111"/>
</svg>
