<svg width="19" height="19" viewBox="0 0 19 19" fill="none" xmlns="http://www.w3.org/2000/svg">
<mask id="mask0_222_2609" style="mask-type:luminance" maskUnits="userSpaceOnUse" x="0" y="-1" width="19" height="20">
<path d="M0 -0.000183105H19V18.9998H0V-0.000183105Z" fill="white"/>
</mask>
<g mask="url(#mask0_222_2609)">
<path d="M1.05272 5.06064C0.74267 4.85406 0.556641 4.50645 0.556641 4.13413C0.556641 3.47592 1.09027 2.9414 1.74852 2.9414H17.2514C17.9097 2.9414 18.4433 3.475 18.4433 4.13321C18.4433 4.50552 18.2573 4.85406 17.9472 5.06064C16.4343 6.06946 11.8756 9.10839 10.1615 10.2514C9.76084 10.5185 9.23912 10.5185 8.83849 10.2514C7.12433 9.10839 2.56563 6.06946 1.05272 5.06064Z" stroke="#111111" stroke-width="1.1" stroke-miterlimit="10" stroke-linecap="round" stroke-linejoin="round"/>
<path d="M0.556641 4.19267C0.556641 4.56498 0.74267 4.91259 1.05272 5.11918C2.56563 6.128 7.12433 9.16692 8.83849 10.3099C9.23912 10.577 9.76084 10.577 10.1615 10.3099C11.8756 9.16692 16.4343 6.128 17.9472 5.11918C18.2573 4.91259 18.4433 4.56406 18.4433 4.19174" stroke="#FF8303" stroke-width="1.1" stroke-miterlimit="10" stroke-linecap="round" stroke-linejoin="round"/>
<path d="M0.556641 4.13386V14.8659C0.556641 15.1821 0.682145 15.4853 0.906025 15.7089C1.12961 15.9328 1.43279 16.0583 1.74908 16.0583H17.2508C17.5671 16.0583 17.8703 15.9328 18.0939 15.7089C18.3178 15.4853 18.4433 15.1821 18.4433 14.8659V4.13386" stroke="#111111" stroke-width="1.1" stroke-miterlimit="10" stroke-linecap="round" stroke-linejoin="round"/>
</g>
</svg>
