<svg width="15" height="25" viewBox="0 0 15 25" fill="none" xmlns="http://www.w3.org/2000/svg">
<path d="M12.5 0H1.78571C0.799107 0 0 0.799107 0 1.78571V23.2143C0 24.2009 0.799107 25 1.78571 25H12.5C13.4866 25 14.2857 24.2009 14.2857 23.2143V1.78571C14.2857 0.799107 13.4866 0 12.5 0ZM13.3929 23.2143C13.3929 23.7054 12.9911 24.1071 12.5 24.1071H1.78571C1.29464 24.1071 0.892857 23.7054 0.892857 23.2143V1.78571C0.892857 1.29464 1.29464 0.892857 1.78571 0.892857H12.5C12.9911 0.892857 13.3929 1.29464 13.3929 1.78571V23.2143Z" fill="#111111"/>
<path d="M8.48242 22.3215H5.80385C5.55831 22.3215 5.35742 22.5224 5.35742 22.768C5.35742 23.0135 5.55831 23.2144 5.80385 23.2144H8.48242C8.72796 23.2144 8.92885 23.0135 8.92885 22.768C8.92885 22.5224 8.72796 22.3215 8.48242 22.3215Z" fill="#111111"/>
<path d="M2.68992 8.32728C2.91254 8.32728 3.09468 8.14513 3.09468 7.92252V7.11299H3.9042C4.12682 7.11299 4.30897 6.93085 4.30897 6.70823C4.30897 6.48561 4.12682 6.30347 3.9042 6.30347H2.68992C2.4673 6.30347 2.28516 6.48561 2.28516 6.70823V7.92252C2.28516 8.14513 2.4673 8.32728 2.68992 8.32728Z" fill="#FF8303"/>
<path d="M11.5956 6.30347H9.57175C9.34914 6.30347 9.16699 6.48561 9.16699 6.70823V8.73204C9.16699 8.95466 9.34914 9.1368 9.57175 9.1368H11.5956C11.8182 9.1368 12.0003 8.95466 12.0003 8.73204V6.70823C12.0003 6.48561 11.8182 6.30347 11.5956 6.30347ZM11.1908 8.32728H9.97652V7.11299H11.1908V8.32728Z" fill="#FF8303"/>
<path d="M4.30897 13.5894H2.68992C2.4673 13.5894 2.28516 13.7715 2.28516 13.9941V15.6132C2.28516 15.8358 2.4673 16.0179 2.68992 16.0179H4.30897C4.53159 16.0179 4.71373 15.8358 4.71373 15.6132V13.9941C4.71373 13.7715 4.53159 13.5894 4.30897 13.5894ZM3.9042 15.2084H3.09468V14.3989H3.9042V15.2084Z" fill="#FF8303"/>
<path d="M11.5956 13.1846H9.57175C9.34914 13.1846 9.16699 13.3667 9.16699 13.5893V15.6131C9.16699 15.8358 9.34914 16.0179 9.57175 16.0179H11.5956C11.8182 16.0179 12.0003 15.8358 12.0003 15.6131V13.5893C12.0003 13.3667 11.8182 13.1846 11.5956 13.1846ZM11.1908 15.2084H9.97652V13.9941H11.1908V15.2084Z" fill="#FF8303"/>
<path d="M7.95261 9.13697C8.17523 9.13697 8.35738 8.95483 8.35738 8.73221V7.51792C8.35738 7.2953 8.17523 7.11316 7.95261 7.11316C7.72999 7.11316 7.54785 7.2953 7.54785 7.51792V8.73221C7.54785 8.95483 7.72999 9.13697 7.95261 9.13697Z" fill="#FF8303"/>
<path d="M5.5239 7.11299H6.33343V7.51775C6.33343 7.74037 6.51557 7.92252 6.73819 7.92252C6.96081 7.92252 7.14295 7.74037 7.14295 7.51775V6.70823C7.14295 6.48561 6.96081 6.30347 6.73819 6.30347H5.5239C5.30128 6.30347 5.11914 6.48561 5.11914 6.70823C5.11914 6.93085 5.30128 7.11299 5.5239 7.11299Z" fill="#FF8303"/>
<path d="M4.30897 11.9701H3.09468V9.54148C3.09468 9.31886 2.91254 9.13672 2.68992 9.13672C2.4673 9.13672 2.28516 9.31886 2.28516 9.54148V12.3748C2.28516 12.5974 2.4673 12.7796 2.68992 12.7796H4.30897C4.53159 12.7796 4.71373 12.5974 4.71373 12.3748C4.71373 12.1522 4.53159 11.9701 4.30897 11.9701Z" fill="#FF8303"/>
<path d="M3.90476 11.5656H5.11905C5.34167 11.5656 5.52381 11.3834 5.52381 11.1608C5.52381 10.9382 5.34167 10.756 5.11905 10.756H3.90476C3.68214 10.756 3.5 10.9382 3.5 11.1608C3.5 11.3834 3.68214 11.5656 3.90476 11.5656Z" fill="#FF8303"/>
<path d="M5.5239 12.7799H6.33343C6.55605 12.7799 6.73819 12.5977 6.73819 12.3751V11.1608C6.73819 10.9382 6.55605 10.756 6.33343 10.756C6.11081 10.756 5.92866 10.9382 5.92866 11.1608V11.9703H5.5239C5.30128 11.9703 5.11914 12.1525 5.11914 12.3751C5.11914 12.5977 5.30128 12.7799 5.5239 12.7799Z" fill="#FF8303"/>
<path d="M6.33343 16.0178C6.55605 16.0178 6.73819 15.8356 6.73819 15.613C6.73819 15.3904 6.55605 15.2082 6.33343 15.2082H5.92866V14.3987C5.92866 14.1761 5.74652 13.994 5.5239 13.994C5.30128 13.994 5.11914 14.1761 5.11914 14.3987V15.613C5.11914 15.8356 5.30128 16.0178 5.5239 16.0178H6.33343Z" fill="#FF8303"/>
<path d="M8.35686 15.2083H7.54734C7.32472 15.2083 7.14258 15.3904 7.14258 15.613C7.14258 15.8356 7.32472 16.0178 7.54734 16.0178H8.35686C8.57948 16.0178 8.76163 15.8356 8.76163 15.613C8.76163 15.3904 8.57948 15.2083 8.35686 15.2083Z" fill="#FF8303"/>
<path d="M9.97642 11.9702H7.95261C7.72999 11.9702 7.54785 12.1523 7.54785 12.3749V13.5892C7.54785 13.8118 7.72999 13.994 7.95261 13.994C8.17523 13.994 8.35738 13.8118 8.35738 13.5892V12.7797H9.97642C10.199 12.7797 10.3812 12.5975 10.3812 12.3749C10.3812 12.1523 10.199 11.9702 9.97642 11.9702Z" fill="#FF8303"/>
<path d="M8.35682 9.94651C8.35682 9.72389 8.17468 9.54175 7.95206 9.54175H6.73777C6.51515 9.54175 6.33301 9.72389 6.33301 9.94651C6.33301 10.1691 6.51515 10.3513 6.73777 10.3513H7.54729V11.1608C7.54729 11.3834 7.72944 11.5656 7.95206 11.5656H8.35682C8.57944 11.5656 8.76158 11.3834 8.76158 11.1608C8.76158 10.9382 8.57944 10.756 8.35682 10.756V9.94651Z" fill="#FF8303"/>
<path d="M9.97652 10.7561H9.57175C9.34914 10.7561 9.16699 10.9382 9.16699 11.1609C9.16699 11.3835 9.34914 11.5656 9.57175 11.5656H9.97652C10.1991 11.5656 10.3813 11.3835 10.3813 11.1609C10.3813 10.9382 10.1991 10.7561 9.97652 10.7561Z" fill="#FF8303"/>
<path d="M6.73777 14.8036C6.96039 14.8036 7.14253 14.6215 7.14253 14.3989V13.5893C7.14253 13.3667 6.96039 13.1846 6.73777 13.1846C6.51515 13.1846 6.33301 13.3667 6.33301 13.5893V14.3989C6.33301 14.6215 6.51515 14.8036 6.73777 14.8036Z" fill="#FF8303"/>
<path d="M3.90476 9.9464H5.52381C5.74643 9.9464 5.92857 9.76425 5.92857 9.54163V7.92258C5.92857 7.69997 5.74643 7.51782 5.52381 7.51782H3.90476C3.68214 7.51782 3.5 7.69997 3.5 7.92258V9.54163C3.5 9.76425 3.68214 9.9464 3.90476 9.9464ZM4.30952 8.32735H5.11905V9.13687H4.30952V8.32735Z" fill="#FF8303"/>
<path d="M11.5956 9.54175H9.57175C9.34914 9.54175 9.16699 9.72389 9.16699 9.94651C9.16699 10.1691 9.34914 10.3513 9.57175 10.3513H11.1908V11.5656C11.1908 11.7882 11.3729 11.9703 11.5956 11.9703C11.8182 11.9703 12.0003 11.7882 12.0003 11.5656V9.94651C12.0003 9.72389 11.8182 9.54175 11.5956 9.54175Z" fill="#FF8303"/>
</svg>
