<svg width="24" height="24" viewBox="0 0 24 24" fill="none" xmlns="http://www.w3.org/2000/svg">
<g clip-path="url(#clip0_222_3527)">
<path d="M22.4437 20.1565H1.55625C0.698418 20.1565 0 19.458 0 18.5956V5.40491C0 4.54712 0.698418 3.84866 1.55625 3.84866H22.4391C23.3016 3.84866 24 4.54708 24 5.40491V18.5955C24 19.458 23.3015 20.1565 22.4437 20.1565Z" fill="url(#paint0_linear_222_3527)"/>
<path d="M24 13.3828V15.2859C22.875 15.0703 21.7782 14.9765 20.6907 15.0844C18.7266 15.2812 16.9032 16.2 14.9485 17.9765C14.6344 18.2625 14.3156 18.5578 14.011 18.8437C13.5422 19.2797 13.0735 19.7203 12.5813 20.1515H9.54379C10.6688 19.4015 11.6766 18.4594 12.7313 17.475C13.0454 17.1844 13.3641 16.8797 13.6875 16.5891C15.9563 14.5312 18.1219 13.4578 20.5032 13.2188C21.6797 13.1015 22.8704 13.1953 24 13.3828ZM12.5203 3.84839C12.361 8.66247 8.39534 12.5249 3.54376 12.5249C2.28753 12.5249 1.08753 12.2672 0 11.7937V9.69841C1.04531 10.3031 2.25467 10.6453 3.54376 10.6453C7.3594 10.6453 10.4813 7.62185 10.6406 3.84375H12.5203V3.84839Z" fill="url(#paint1_linear_222_3527)"/>
<path d="M24 17.8967V18.5999C24 19.4624 23.3016 20.1561 22.4437 20.1561H1.55625C0.698418 20.1561 0 19.4576 0 18.5952V17.892H24V17.8967Z" fill="url(#paint2_linear_222_3527)"/>
<path d="M22.2422 20.1563H22.4437C23.3063 20.1563 24 19.4578 24 18.6V5.40467C24 4.54688 23.3016 3.84842 22.4437 3.84842H22.2422V20.1563Z" fill="url(#paint3_linear_222_3527)"/>
<path d="M24 6.10781V5.40467C24 4.54688 23.3016 3.84842 22.4437 3.84842H1.55625C0.698418 3.84842 0 4.54688 0 5.40467V6.10781H24Z" fill="url(#paint4_linear_222_3527)"/>
<path d="M1.75781 3.84842H1.55625C0.698418 3.84842 0 4.54688 0 5.40467V18.5953C0 19.4578 0.698418 20.1515 1.55625 20.1515H1.75781V3.84842Z" fill="url(#paint5_linear_222_3527)"/>
<path d="M5.02502 11.7845H2.72344C2.37187 11.7845 2.08594 11.4986 2.08594 11.147V9.61889C2.08594 9.26732 2.37187 8.98138 2.72344 8.98138H5.02502C5.37659 8.98138 5.66252 9.26732 5.66252 9.61889V11.147C5.65783 11.5033 5.37659 11.7845 5.02502 11.7845Z" fill="url(#paint6_linear_222_3527)"/>
<path d="M5.02487 11.7471H2.71861C2.39049 11.7471 2.12329 11.4799 2.12329 11.1517V9.61894C2.12329 9.29082 2.39049 9.02362 2.71861 9.02362H5.02487C5.35298 9.02362 5.62018 9.29082 5.62018 9.61894V11.1517C5.62018 11.4799 5.35298 11.7471 5.02487 11.7471Z" fill="url(#paint7_linear_222_3527)"/>
<path d="M5.62018 10.4346V10.3409H4.40141V9.92837L4.71548 9.6143H5.62018C5.62018 9.58148 5.6155 9.54866 5.61082 9.52056H4.69207C4.67802 9.52056 4.66861 9.52525 4.65925 9.53461L4.33113 9.86273H3.91861V9.02835H3.82487V9.86273H3.41706L3.08895 9.53461C3.07958 9.52525 3.06549 9.52056 3.05613 9.52056H2.13266C2.12797 9.5487 2.12329 9.58152 2.12329 9.6143H3.03736L3.34674 9.92369V10.3409H2.12329V10.4346H3.34674V10.8518L3.03736 11.1611H2.12329C2.12329 11.194 2.12797 11.2268 2.13266 11.2549H3.05609C3.07014 11.2549 3.07954 11.2502 3.08891 11.2408L3.41703 10.9127H3.82487V11.7471H3.91861V10.9127H4.33109L4.65921 11.2408C4.66857 11.2502 4.67794 11.2549 4.69203 11.2549H5.61078C5.61546 11.2267 5.62014 11.1939 5.62014 11.1611H4.71544L4.40137 10.8471V10.4346H5.62018ZM4.30768 10.819H3.44048V9.95178H4.30768V10.819Z" fill="url(#paint8_linear_222_3527)"/>
<path d="M5.02026 9.02362H5.02495C5.35306 9.02362 5.62026 9.29082 5.62026 9.61894V11.1517C5.62026 11.4799 5.35306 11.7471 5.02495 11.7471H5.02026V9.02362Z" fill="url(#paint9_linear_222_3527)"/>
<path d="M5.61994 11.1799C5.60589 11.4939 5.34337 11.747 5.02462 11.747H2.71836C2.39961 11.747 2.1371 11.4939 2.12305 11.1799H5.61994Z" fill="url(#paint10_linear_222_3527)"/>
<path d="M2.72797 9.02362H2.71861C2.39049 9.02362 2.12329 9.29082 2.12329 9.61894V11.1517C2.12329 11.4799 2.39049 11.7471 2.71861 11.7471H2.72329V9.02362H2.72797Z" fill="url(#paint11_linear_222_3527)"/>
<path d="M5.62018 9.5908C5.60613 9.27673 5.34362 9.02362 5.02487 9.02362H2.71861C2.39986 9.02362 2.13734 9.27673 2.12329 9.5908H5.62018Z" fill="url(#paint12_linear_222_3527)"/>
<path d="M21.4874 11.719C21.464 11.719 21.4452 11.7143 21.4265 11.7049C21.3561 11.6721 21.328 11.5877 21.3655 11.5174C21.7264 10.8002 21.7264 9.97987 21.3655 9.26273C21.3327 9.1924 21.3608 9.10803 21.4265 9.07521C21.4968 9.04239 21.5812 9.07053 21.614 9.13617C22.0171 9.93305 22.0171 10.8471 21.614 11.644C21.5858 11.6909 21.539 11.719 21.4874 11.719ZM21.0046 11.4518C21.3843 10.7768 21.3843 9.99868 21.0046 9.32368C20.9671 9.25804 20.8827 9.22994 20.8124 9.27213C20.7468 9.30963 20.7187 9.394 20.7609 9.46432C21.0937 10.055 21.0937 10.73 20.7609 11.3159C20.7234 11.3815 20.7468 11.4706 20.8124 11.5081C20.8359 11.5221 20.8593 11.5268 20.8827 11.5268C20.9296 11.5221 20.9765 11.494 21.0046 11.4518ZM20.4046 11.2596C20.7749 10.7206 20.7749 10.0502 20.4046 9.50647C20.3624 9.44083 20.2734 9.42678 20.2077 9.46897C20.1421 9.51115 20.1281 9.60021 20.1702 9.66585C20.4702 10.1065 20.4702 10.6596 20.1702 11.1002C20.1281 11.1659 20.1421 11.2502 20.2077 11.2971C20.2312 11.3158 20.2593 11.3206 20.2874 11.3206C20.3343 11.3252 20.3765 11.3018 20.4046 11.2596ZM19.7718 11.0815C19.978 10.8939 20.0905 10.6455 20.0905 10.3877C20.0905 10.1299 19.978 9.88146 19.7718 9.69398C19.7156 9.64243 19.6265 9.64243 19.5749 9.70335C19.5234 9.75958 19.5234 9.84868 19.5843 9.90023C19.7296 10.0361 19.8093 10.2096 19.8093 10.3877C19.8093 10.5658 19.7296 10.7393 19.5843 10.8752C19.5281 10.9268 19.5234 11.0159 19.5749 11.0721C19.6031 11.1002 19.6406 11.119 19.6781 11.119C19.7109 11.119 19.7437 11.1049 19.7718 11.0815Z" fill="url(#paint13_linear_222_3527)"/>
<path d="M11.8592 17.7937H2.26393C2.18425 17.7937 2.12329 17.7328 2.12329 17.6531C2.12329 17.5734 2.18425 17.5125 2.26393 17.5125H11.8592C11.9389 17.5125 11.9999 17.5734 11.9999 17.6531C11.9998 17.7328 11.9389 17.7937 11.8592 17.7937Z" fill="url(#paint14_linear_222_3527)"/>
<path d="M21.7732 17.7937H19.9639C19.8842 17.7937 19.8232 17.7328 19.8232 17.6531C19.8232 17.5734 19.8842 17.5125 19.9639 17.5125H21.7732C21.8529 17.5125 21.9138 17.5734 21.9138 17.6531C21.9139 17.7328 21.8483 17.7937 21.7732 17.7937ZM19.1951 17.6531C19.1951 17.5734 19.1342 17.5125 19.0545 17.5125H17.2451C17.1654 17.5125 17.1045 17.5734 17.1045 17.6531C17.1045 17.7328 17.1654 17.7938 17.2451 17.7938H19.0545C19.1342 17.7937 19.1951 17.7281 19.1951 17.6531Z" fill="url(#paint15_linear_222_3527)"/>
<path d="M2.26393 7.0453C2.18425 7.0453 2.12329 6.98434 2.12329 6.90465V6.35152C2.12329 6.27183 2.18425 6.21088 2.26393 6.21088C2.34362 6.21088 2.40458 6.27183 2.40458 6.35152V6.89997C2.40454 6.9797 2.34362 7.0453 2.26393 7.0453ZM3.1686 6.90469V6.35156C3.1686 6.27187 3.10764 6.21092 3.02795 6.21092C2.94827 6.21092 2.88731 6.27187 2.88731 6.35156V6.90001C2.88731 6.9797 2.94827 7.04065 3.02795 7.04065C3.10768 7.04529 3.1686 6.9797 3.1686 6.90469ZM3.93738 6.90469V6.35156C3.93738 6.27187 3.87642 6.21092 3.79673 6.21092C3.71704 6.21092 3.65609 6.27187 3.65609 6.35156V6.90001C3.65609 6.9797 3.71704 7.04065 3.79673 7.04065C3.87174 7.04529 3.93738 6.9797 3.93738 6.90469ZM4.70143 6.90469V6.35156C4.70143 6.27187 4.64048 6.21092 4.56079 6.21092C4.4811 6.21092 4.42015 6.27187 4.42015 6.35156V6.90001C4.42015 6.9797 4.4811 7.04065 4.56079 7.04065C4.64048 7.04529 4.70143 6.9797 4.70143 6.90469Z" fill="url(#paint16_linear_222_3527)"/>
<path d="M2.57328 15.4083H2.54987C2.31549 15.4083 2.12329 15.2161 2.12329 14.9817V14.3161C2.12329 14.0817 2.31549 13.8895 2.54987 13.8895H2.57332C2.8077 13.8895 2.99989 14.0817 2.99989 14.3161V14.9817C2.99986 15.2161 2.81234 15.4083 2.57328 15.4083ZM2.54987 14.1708C2.47018 14.1708 2.40454 14.2365 2.40454 14.3161V14.9818C2.40454 15.0615 2.47018 15.1271 2.54987 15.1271H2.57332C2.65301 15.1271 2.71865 15.0615 2.71865 14.9818V14.3161C2.71865 14.2365 2.65301 14.1708 2.57332 14.1708H2.54987Z" fill="url(#paint17_linear_222_3527)"/>
<path d="M3.71272 15.4082H3.68927C3.45489 15.4082 3.2627 15.216 3.2627 14.9816V14.316C3.2627 14.0816 3.45489 13.8894 3.68927 13.8894H3.71272C3.9471 13.8894 4.1393 14.0816 4.1393 14.316V14.9816C4.1393 15.216 3.9471 15.4082 3.71272 15.4082ZM3.68927 14.1707C3.60958 14.1707 3.54394 14.2364 3.54394 14.316V14.9817C3.54394 15.0614 3.60958 15.127 3.68927 15.127H3.71272C3.79241 15.127 3.85805 15.0614 3.85805 14.9817V14.316C3.85805 14.2364 3.79241 14.1707 3.71272 14.1707H3.68927Z" fill="url(#paint18_linear_222_3527)"/>
<path d="M4.85115 15.4081H4.8277C4.59332 15.4081 4.40112 15.2159 4.40112 14.9816V14.3159C4.40112 14.0815 4.59332 13.8893 4.8277 13.8893H4.85115C5.08553 13.8893 5.27773 14.0815 5.27773 14.3159V14.9816C5.27773 15.2159 5.08553 15.4081 4.85115 15.4081ZM4.82774 14.1706C4.74805 14.1706 4.68241 14.2363 4.68241 14.316V14.9816C4.68241 15.0613 4.74805 15.1269 4.82774 15.1269H4.85119C4.93088 15.1269 4.99652 15.0613 4.99652 14.9816V14.316C4.99652 14.2363 4.93088 14.1706 4.85119 14.1706H4.82774Z" fill="url(#paint19_linear_222_3527)"/>
<path d="M5.99007 15.4081H5.96661C5.73223 15.4081 5.54004 15.2159 5.54004 14.9816V14.3159C5.54004 14.0815 5.73223 13.8893 5.96661 13.8893H5.99007C6.22445 13.8893 6.41664 14.0815 6.41664 14.3159V14.9816C6.41664 15.2159 6.22445 15.4081 5.99007 15.4081ZM5.96661 14.1706C5.88693 14.1706 5.82129 14.2363 5.82129 14.316V14.9816C5.82129 15.0613 5.88693 15.1269 5.96661 15.1269H5.99007C6.06976 15.1269 6.13539 15.0613 6.13539 14.9816V14.316C6.13539 14.2363 6.06976 14.1706 5.99007 14.1706H5.96661Z" fill="url(#paint20_linear_222_3527)"/>
<path d="M7.73885 15.408H7.71539C7.48101 15.408 7.28882 15.2158 7.28882 14.9815V14.3158C7.28882 14.0814 7.48101 13.8893 7.71539 13.8893H7.73885C7.97323 13.8893 8.16542 14.0814 8.16542 14.3158V14.9815C8.16538 15.2158 7.97323 15.408 7.73885 15.408ZM7.71539 14.1705C7.63571 14.1705 7.57007 14.2362 7.57007 14.3159V14.9815C7.57007 15.0612 7.63571 15.1268 7.71539 15.1268H7.73885C7.81853 15.1268 7.88417 15.0612 7.88417 14.9815V14.3159C7.88417 14.2362 7.81853 14.1705 7.73885 14.1705H7.71539Z" fill="url(#paint21_linear_222_3527)"/>
<path d="M8.87776 15.4081H8.85431C8.61993 15.4081 8.42773 15.2159 8.42773 14.9816V14.3159C8.42773 14.0815 8.61993 13.8893 8.85431 13.8893H8.87776C9.11214 13.8893 9.30434 14.0815 9.30434 14.3159V14.9816C9.30434 15.2159 9.11214 15.4081 8.87776 15.4081ZM8.85435 14.1706C8.77466 14.1706 8.70902 14.2363 8.70902 14.316V14.9816C8.70902 15.0613 8.77466 15.1269 8.85435 15.1269H8.8778C8.95749 15.1269 9.02313 15.0613 9.02313 14.9816V14.316C9.02313 14.2363 8.95749 14.1706 8.8778 14.1706H8.85435Z" fill="url(#paint22_linear_222_3527)"/>
<path d="M10.0174 15.4081H9.99396C9.75958 15.4081 9.56738 15.2159 9.56738 14.9816V14.3159C9.56738 14.0815 9.75958 13.8893 9.99396 13.8893H10.0174C10.2518 13.8893 10.444 14.0815 10.444 14.3159V14.9816C10.4439 15.2159 10.2518 15.4081 10.0174 15.4081ZM9.99396 14.1706C9.91427 14.1706 9.84863 14.2363 9.84863 14.316V14.9816C9.84863 15.0613 9.91427 15.1269 9.99396 15.1269H10.0174C10.0971 15.1269 10.1627 15.0613 10.1627 14.9816V14.316C10.1627 14.2363 10.0971 14.1706 10.0174 14.1706H9.99396Z" fill="url(#paint23_linear_222_3527)"/>
<path d="M11.1558 15.408H11.1324C10.898 15.408 10.7058 15.2158 10.7058 14.9815V14.3158C10.7058 14.0814 10.898 13.8893 11.1324 13.8893H11.1558C11.3902 13.8893 11.5824 14.0814 11.5824 14.3158V14.9815C11.5824 15.2158 11.3902 15.408 11.1558 15.408ZM11.1324 14.1705C11.0527 14.1705 10.9871 14.2362 10.9871 14.3159V14.9815C10.9871 15.0612 11.0527 15.1268 11.1324 15.1268H11.1559C11.2356 15.1268 11.3012 15.0612 11.3012 14.9815V14.3159C11.3012 14.2362 11.2356 14.1705 11.1559 14.1705H11.1324Z" fill="url(#paint24_linear_222_3527)"/>
<path d="M12.9041 15.408H12.8807C12.6463 15.408 12.4541 15.2158 12.4541 14.9815V14.3158C12.4541 14.0814 12.6463 13.8893 12.8807 13.8893H12.9041C13.1385 13.8893 13.3307 14.0814 13.3307 14.3158V14.9815C13.3307 15.2158 13.1385 15.408 12.9041 15.408ZM12.8807 14.1705C12.801 14.1705 12.7354 14.2362 12.7354 14.3159V14.9815C12.7354 15.0612 12.801 15.1268 12.8807 15.1268H12.9042C12.9839 15.1268 13.0495 15.0612 13.0495 14.9815V14.3159C13.0495 14.2362 12.9839 14.1705 12.9042 14.1705H12.8807Z" fill="url(#paint25_linear_222_3527)"/>
<path d="M14.0433 15.408H14.0198C13.7855 15.408 13.5933 15.2158 13.5933 14.9815V14.3158C13.5933 14.0814 13.7855 13.8893 14.0198 13.8893H14.0433C14.2777 13.8893 14.4699 14.0814 14.4699 14.3158V14.9815C14.4698 15.2158 14.2777 15.408 14.0433 15.408ZM14.0198 14.1705C13.9401 14.1705 13.8745 14.2362 13.8745 14.3159V14.9815C13.8745 15.0612 13.9401 15.1268 14.0198 15.1268H14.0433C14.123 15.1268 14.1886 15.0612 14.1886 14.9815V14.3159C14.1886 14.2362 14.123 14.1705 14.0433 14.1705H14.0198Z" fill="url(#paint26_linear_222_3527)"/>
<path d="M15.1822 15.4081H15.1588C14.9244 15.4081 14.7322 15.2159 14.7322 14.9816V14.3159C14.7322 14.0815 14.9244 13.8893 15.1588 13.8893H15.1822C15.4166 13.8893 15.6088 14.0815 15.6088 14.3159V14.9816C15.6088 15.2159 15.4166 15.4081 15.1822 15.4081ZM15.1588 14.1706C15.0791 14.1706 15.0135 14.2363 15.0135 14.316V14.9816C15.0135 15.0613 15.0791 15.1269 15.1588 15.1269H15.1822C15.2619 15.1269 15.3276 15.0613 15.3276 14.9816V14.316C15.3276 14.2363 15.2619 14.1706 15.1822 14.1706H15.1588Z" fill="url(#paint27_linear_222_3527)"/>
<path d="M16.3219 15.4081H16.2984C16.064 15.4081 15.8718 15.2159 15.8718 14.9816V14.3159C15.8718 14.0815 16.064 13.8893 16.2984 13.8893H16.3219C16.5562 13.8893 16.7484 14.0815 16.7484 14.3159V14.9816C16.7484 15.2159 16.5562 15.4081 16.3219 15.4081ZM16.2984 14.1706C16.2187 14.1706 16.1531 14.2363 16.1531 14.316V14.9816C16.1531 15.0613 16.2187 15.1269 16.2984 15.1269H16.3219C16.4015 15.1269 16.4672 15.0613 16.4672 14.9816V14.316C16.4672 14.2363 16.4015 14.1706 16.3219 14.1706H16.2984Z" fill="url(#paint28_linear_222_3527)"/>
<path d="M18.0699 15.408H18.0464C17.8121 15.408 17.6199 15.2158 17.6199 14.9815V14.3158C17.6199 14.0814 17.8121 13.8893 18.0464 13.8893H18.0699C18.3043 13.8893 18.4965 14.0814 18.4965 14.3158V14.9815C18.4965 15.2158 18.3043 15.408 18.0699 15.408ZM18.0465 14.1705C17.9668 14.1705 17.9012 14.2362 17.9012 14.3159V14.9815C17.9012 15.0612 17.9668 15.1268 18.0465 15.1268H18.0699C18.1496 15.1268 18.2153 15.0612 18.2153 14.9815V14.3159C18.2153 14.2362 18.1496 14.1705 18.0699 14.1705H18.0465Z" fill="url(#paint29_linear_222_3527)"/>
<path d="M19.2088 15.408H19.1854C18.951 15.408 18.7588 15.2158 18.7588 14.9815V14.3158C18.7588 14.0814 18.951 13.8893 19.1854 13.8893H19.2088C19.4432 13.8893 19.6354 14.0814 19.6354 14.3158V14.9815C19.6354 15.2158 19.4432 15.408 19.2088 15.408ZM19.1854 14.1705C19.1057 14.1705 19.04 14.2362 19.04 14.3159V14.9815C19.04 15.0612 19.1057 15.1268 19.1854 15.1268H19.2088C19.2885 15.1268 19.3541 15.0612 19.3541 14.9815V14.3159C19.3541 14.2362 19.2885 14.1705 19.2088 14.1705H19.1854Z" fill="url(#paint30_linear_222_3527)"/>
<path d="M20.3482 15.408H20.3248C20.0904 15.408 19.8982 15.2158 19.8982 14.9815V14.3158C19.8982 14.0814 20.0904 13.8893 20.3248 13.8893H20.3482C20.5826 13.8893 20.7748 14.0814 20.7748 14.3158V14.9815C20.7748 15.2158 20.5826 15.408 20.3482 15.408ZM20.3248 14.1705C20.2451 14.1705 20.1794 14.2362 20.1794 14.3159V14.9815C20.1794 15.0612 20.2451 15.1268 20.3248 15.1268H20.3482C20.4279 15.1268 20.4935 15.0612 20.4935 14.9815V14.3159C20.4935 14.2362 20.4279 14.1705 20.3482 14.1705H20.3248Z" fill="url(#paint31_linear_222_3527)"/>
<path d="M21.4871 15.4081H21.4637C21.2293 15.4081 21.0371 15.2159 21.0371 14.9816V14.3159C21.0371 14.0815 21.2293 13.8893 21.4637 13.8893H21.4871C21.7215 13.8893 21.9137 14.0815 21.9137 14.3159V14.9816C21.9137 15.2159 21.7215 15.4081 21.4871 15.4081ZM21.4637 14.1706C21.384 14.1706 21.3184 14.2363 21.3184 14.316V14.9816C21.3184 15.0613 21.384 15.1269 21.4637 15.1269H21.4871C21.5668 15.1269 21.6325 15.0613 21.6325 14.9816V14.316C21.6325 14.2363 21.5668 14.1706 21.4871 14.1706H21.4637Z" fill="url(#paint32_linear_222_3527)"/>
</g>
<defs>
<linearGradient id="paint0_linear_222_3527" x1="-0.087322" y1="4.35083" x2="23.6573" y2="19.3827" gradientUnits="userSpaceOnUse">
<stop stop-color="#7B7DA1"/>
<stop offset="0.3104" stop-color="#696B97"/>
<stop offset="0.8987" stop-color="#494C6D"/>
<stop offset="1" stop-color="#010216"/>
</linearGradient>
<linearGradient id="paint1_linear_222_3527" x1="0.0722897" y1="5.00459" x2="23.0868" y2="19.6894" gradientUnits="userSpaceOnUse">
<stop stop-color="#8587AE"/>
<stop offset="0.3104" stop-color="#888AB4"/>
<stop offset="0.8987" stop-color="#51557A"/>
<stop offset="1" stop-color="#4A4E73"/>
</linearGradient>
<linearGradient id="paint2_linear_222_3527" x1="12" y1="20.2661" x2="12" y2="18.718" gradientUnits="userSpaceOnUse">
<stop stop-color="#32365C"/>
<stop offset="1" stop-color="#32365C" stop-opacity="0"/>
</linearGradient>
<linearGradient id="paint3_linear_222_3527" x1="24.022" y1="12.0023" x2="22.5297" y2="12.0023" gradientUnits="userSpaceOnUse">
<stop stop-color="#32365C"/>
<stop offset="1" stop-color="#32365C" stop-opacity="0"/>
</linearGradient>
<linearGradient id="paint4_linear_222_3527" x1="12" y1="3.73753" x2="12" y2="5.28559" gradientUnits="userSpaceOnUse">
<stop stop-color="#A1A4C7"/>
<stop offset="1" stop-color="#A1A4C7" stop-opacity="0"/>
</linearGradient>
<linearGradient id="paint5_linear_222_3527" x1="-0.0221158" y1="12" x2="1.28508" y2="12" gradientUnits="userSpaceOnUse">
<stop stop-color="#A1A4C7"/>
<stop offset="1" stop-color="#A1A4C7" stop-opacity="0"/>
</linearGradient>
<linearGradient id="paint6_linear_222_3527" x1="1.00222" y1="7.51092" x2="6.06056" y2="12.5693" gradientUnits="userSpaceOnUse">
<stop stop-color="#7B7DA1"/>
<stop offset="0.4958" stop-color="#616386"/>
<stop offset="1" stop-color="#424566"/>
</linearGradient>
<linearGradient id="paint7_linear_222_3527" x1="2.31604" y1="9.19968" x2="5.4357" y2="11.5773" gradientUnits="userSpaceOnUse">
<stop stop-color="#FFED81"/>
<stop offset="0.2348" stop-color="#FFD968"/>
<stop offset="0.7302" stop-color="#FFA629"/>
<stop offset="1" stop-color="#FF8804"/>
</linearGradient>
<linearGradient id="paint8_linear_222_3527" x1="2.32458" y1="9.25781" x2="5.44983" y2="11.5403" gradientUnits="userSpaceOnUse">
<stop stop-color="#EFA33D"/>
<stop offset="1" stop-color="#A05223"/>
</linearGradient>
<linearGradient id="paint9_linear_222_3527" x1="5.62215" y1="10.3854" x2="5.22297" y2="10.3854" gradientUnits="userSpaceOnUse">
<stop stop-color="#FF8804"/>
<stop offset="1" stop-color="#FF8804" stop-opacity="0"/>
</linearGradient>
<linearGradient id="paint10_linear_222_3527" x1="3.87149" y1="11.743" x2="3.87149" y2="11.3115" gradientUnits="userSpaceOnUse">
<stop stop-color="#FF8804"/>
<stop offset="1" stop-color="#FF8804" stop-opacity="0"/>
</linearGradient>
<linearGradient id="paint11_linear_222_3527" x1="2.12329" y1="10.3854" x2="2.464" y2="10.3854" gradientUnits="userSpaceOnUse">
<stop stop-color="#FFF0A9"/>
<stop offset="1" stop-color="#FFF0A9" stop-opacity="0"/>
</linearGradient>
<linearGradient id="paint12_linear_222_3527" x1="3.87174" y1="9.02905" x2="3.87174" y2="9.46055" gradientUnits="userSpaceOnUse">
<stop stop-color="#FFF0A9"/>
<stop offset="1" stop-color="#FFF0A9" stop-opacity="0"/>
</linearGradient>
<linearGradient id="paint13_linear_222_3527" x1="19.8782" y1="9.38322" x2="21.889" y2="11.394" gradientUnits="userSpaceOnUse">
<stop stop-color="#E9EDFF"/>
<stop offset="1" stop-color="#C4CBFF"/>
</linearGradient>
<linearGradient id="paint14_linear_222_3527" x1="7.06157" y1="17.4894" x2="7.06157" y2="17.7826" gradientUnits="userSpaceOnUse">
<stop stop-color="#C4CBFF"/>
<stop offset="0.5251" stop-color="#E9EDFF"/>
<stop offset="1" stop-color="#C4CBFF"/>
</linearGradient>
<linearGradient id="paint15_linear_222_3527" x1="19.5092" y1="17.4834" x2="19.5092" y2="17.7995" gradientUnits="userSpaceOnUse">
<stop stop-color="#C4CBFF"/>
<stop offset="0.5251" stop-color="#E9EDFF"/>
<stop offset="1" stop-color="#C4CBFF"/>
</linearGradient>
<linearGradient id="paint16_linear_222_3527" x1="2.04951" y1="6.21532" x2="4.73634" y2="7.02916" gradientUnits="userSpaceOnUse">
<stop stop-color="#E9EDFF"/>
<stop offset="1" stop-color="#C4CBFF"/>
</linearGradient>
<linearGradient id="paint17_linear_222_3527" x1="2.12329" y1="14.6489" x2="3.00092" y2="14.6489" gradientUnits="userSpaceOnUse">
<stop stop-color="#C4CBFF"/>
<stop offset="0.5251" stop-color="#E9EDFF"/>
<stop offset="1" stop-color="#C4CBFF"/>
</linearGradient>
<linearGradient id="paint18_linear_222_3527" x1="3.26273" y1="14.6488" x2="4.14036" y2="14.6488" gradientUnits="userSpaceOnUse">
<stop stop-color="#C4CBFF"/>
<stop offset="0.5251" stop-color="#E9EDFF"/>
<stop offset="1" stop-color="#C4CBFF"/>
</linearGradient>
<linearGradient id="paint19_linear_222_3527" x1="4.40116" y1="14.6488" x2="5.27879" y2="14.6488" gradientUnits="userSpaceOnUse">
<stop stop-color="#C4CBFF"/>
<stop offset="0.5251" stop-color="#E9EDFF"/>
<stop offset="1" stop-color="#C4CBFF"/>
</linearGradient>
<linearGradient id="paint20_linear_222_3527" x1="5.54008" y1="14.6488" x2="6.41771" y2="14.6488" gradientUnits="userSpaceOnUse">
<stop stop-color="#C4CBFF"/>
<stop offset="0.5251" stop-color="#E9EDFF"/>
<stop offset="1" stop-color="#C4CBFF"/>
</linearGradient>
<linearGradient id="paint21_linear_222_3527" x1="7.28886" y1="14.6487" x2="8.16648" y2="14.6487" gradientUnits="userSpaceOnUse">
<stop stop-color="#C4CBFF"/>
<stop offset="0.5251" stop-color="#E9EDFF"/>
<stop offset="1" stop-color="#C4CBFF"/>
</linearGradient>
<linearGradient id="paint22_linear_222_3527" x1="8.42777" y1="14.6488" x2="9.3054" y2="14.6488" gradientUnits="userSpaceOnUse">
<stop stop-color="#C4CBFF"/>
<stop offset="0.5251" stop-color="#E9EDFF"/>
<stop offset="1" stop-color="#C4CBFF"/>
</linearGradient>
<linearGradient id="paint23_linear_222_3527" x1="9.56742" y1="14.6488" x2="10.445" y2="14.6488" gradientUnits="userSpaceOnUse">
<stop stop-color="#C4CBFF"/>
<stop offset="0.5251" stop-color="#E9EDFF"/>
<stop offset="1" stop-color="#C4CBFF"/>
</linearGradient>
<linearGradient id="paint24_linear_222_3527" x1="10.7049" y1="14.6487" x2="11.5826" y2="14.6487" gradientUnits="userSpaceOnUse">
<stop stop-color="#C4CBFF"/>
<stop offset="0.5251" stop-color="#E9EDFF"/>
<stop offset="1" stop-color="#C4CBFF"/>
</linearGradient>
<linearGradient id="paint25_linear_222_3527" x1="12.4541" y1="14.6487" x2="13.3318" y2="14.6487" gradientUnits="userSpaceOnUse">
<stop stop-color="#C4CBFF"/>
<stop offset="0.5251" stop-color="#E9EDFF"/>
<stop offset="1" stop-color="#C4CBFF"/>
</linearGradient>
<linearGradient id="paint26_linear_222_3527" x1="13.5923" y1="14.6487" x2="14.4699" y2="14.6487" gradientUnits="userSpaceOnUse">
<stop stop-color="#C4CBFF"/>
<stop offset="0.5251" stop-color="#E9EDFF"/>
<stop offset="1" stop-color="#C4CBFF"/>
</linearGradient>
<linearGradient id="paint27_linear_222_3527" x1="14.731" y1="14.6488" x2="15.6086" y2="14.6488" gradientUnits="userSpaceOnUse">
<stop stop-color="#C4CBFF"/>
<stop offset="0.5251" stop-color="#E9EDFF"/>
<stop offset="1" stop-color="#C4CBFF"/>
</linearGradient>
<linearGradient id="paint28_linear_222_3527" x1="15.8704" y1="14.6488" x2="16.748" y2="14.6488" gradientUnits="userSpaceOnUse">
<stop stop-color="#C4CBFF"/>
<stop offset="0.5251" stop-color="#E9EDFF"/>
<stop offset="1" stop-color="#C4CBFF"/>
</linearGradient>
<linearGradient id="paint29_linear_222_3527" x1="17.6187" y1="14.6487" x2="18.4963" y2="14.6487" gradientUnits="userSpaceOnUse">
<stop stop-color="#C4CBFF"/>
<stop offset="0.5251" stop-color="#E9EDFF"/>
<stop offset="1" stop-color="#C4CBFF"/>
</linearGradient>
<linearGradient id="paint30_linear_222_3527" x1="18.7573" y1="14.6487" x2="19.6349" y2="14.6487" gradientUnits="userSpaceOnUse">
<stop stop-color="#C4CBFF"/>
<stop offset="0.5251" stop-color="#E9EDFF"/>
<stop offset="1" stop-color="#C4CBFF"/>
</linearGradient>
<linearGradient id="paint31_linear_222_3527" x1="19.8964" y1="14.6487" x2="20.7741" y2="14.6487" gradientUnits="userSpaceOnUse">
<stop stop-color="#C4CBFF"/>
<stop offset="0.5251" stop-color="#E9EDFF"/>
<stop offset="1" stop-color="#C4CBFF"/>
</linearGradient>
<linearGradient id="paint32_linear_222_3527" x1="21.0351" y1="14.6488" x2="21.9128" y2="14.6488" gradientUnits="userSpaceOnUse">
<stop stop-color="#C4CBFF"/>
<stop offset="0.5251" stop-color="#E9EDFF"/>
<stop offset="1" stop-color="#C4CBFF"/>
</linearGradient>
<clipPath id="clip0_222_3527">
<rect width="24" height="24" fill="white"/>
</clipPath>
</defs>
</svg>
