<svg width="6" height="9" viewBox="0 0 6 9" fill="none" xmlns="http://www.w3.org/2000/svg">
<path d="M0.000217176 2.29211C-0.00118086 2.32449 0.00418225 2.35681 0.0159765 2.38708C0.0277708 2.41735 0.0457468 2.44493 0.0687997 2.46813C0.0918525 2.49133 0.119495 2.50965 0.150026 2.52197C0.180558 2.53429 0.213334 2.54035 0.246338 2.53977H1.08887C1.2298 2.53977 1.34214 2.42647 1.36052 2.2891C1.45244 1.63135 1.912 1.15207 2.73104 1.15207C3.43162 1.15207 4.07297 1.49599 4.07297 2.3232C4.07297 2.95989 3.69102 3.25267 3.08746 3.69786C2.40016 4.18817 1.85583 4.7607 1.89464 5.69017L1.8977 5.90775C1.89877 5.97354 1.92615 6.03627 1.97391 6.08242C2.02167 6.12856 2.086 6.15442 2.15301 6.15441H2.98125C3.04896 6.15441 3.1139 6.128 3.16178 6.08099C3.20966 6.03398 3.23656 5.97022 3.23656 5.90374V5.79846C3.23656 5.07854 3.51536 4.86898 4.26803 4.30849C4.88997 3.84425 5.53846 3.32888 5.53846 2.24699C5.53846 0.731952 4.23535 0 2.80866 0C1.51473 0 0.097236 0.591577 0.000217176 2.29211ZM1.5903 8.07052C1.5903 8.60495 2.02434 9 2.62177 9C3.24371 9 3.67161 8.60495 3.67161 8.07052C3.67161 7.51705 3.24269 7.12801 2.62075 7.12801C2.02434 7.12801 1.5903 7.51705 1.5903 8.07052Z" fill="white"/>
</svg>
