<svg width="18" height="25" viewBox="0 0 18 25" fill="none" xmlns="http://www.w3.org/2000/svg">
<path d="M17.2569 16.5685C15.5766 15.7523 12.6321 17.4406 10.2677 18.7968C9.32759 19.3369 8.44344 19.845 8.05538 19.921C7.72732 19.989 7.45928 19.949 7.23924 19.797C6.9752 19.617 6.82317 19.3129 6.73916 19.0849C6.89918 19.0369 7.09522 19.0009 7.32725 18.9929C9.64364 18.9049 11.0999 18.0487 11.1199 16.7605C11.1319 16.1564 10.8918 15.8204 10.6878 15.6443C10.2237 15.2403 9.59563 15.3283 9.52762 15.3363C9.50762 15.3363 7.52729 15.6203 6.33509 15.4643L6.22707 15.4483C5.03487 15.2923 3.90669 15.1482 2.7985 16.7165C1.95836 17.9047 0.566134 17.7287 0.510125 17.7207C0.394106 17.7047 0.278086 17.7367 0.190072 17.8127C0.102057 17.8887 0.0500488 18.0007 0.0500488 18.1167V22.9495C0.0500488 23.1536 0.202074 23.3256 0.406108 23.3456L6.4191 24.0137C6.62314 24.0377 6.83117 24.0497 7.03521 24.0497C8.12339 24.0497 9.19556 23.7337 10.1117 23.1336L17.3569 18.4048C17.677 18.1967 17.861 17.8287 17.837 17.4406C17.813 17.0566 17.597 16.7325 17.2529 16.5645L17.2569 16.5685ZM16.9208 17.7367L9.67564 22.4655C8.73949 23.0776 7.6153 23.3416 6.50712 23.2216L0.850181 22.5895V18.5288C1.48629 18.5088 2.65048 18.3088 3.45061 17.1766C4.28275 16.0004 4.97486 16.0924 6.12305 16.2404L6.23107 16.2564C7.53529 16.4245 9.55562 16.1364 9.64364 16.1244C9.73565 16.1124 10.0077 16.1084 10.1637 16.2444C10.2717 16.3404 10.3238 16.5045 10.3198 16.7405C10.3037 17.7247 8.67948 18.1327 7.29525 18.1847C6.78717 18.2047 6.3991 18.3208 6.10705 18.4728C6.08305 18.4808 6.06305 18.4928 6.04304 18.5088C5.51895 18.7968 5.32692 19.1809 5.31092 19.2049C5.2149 19.4009 5.29492 19.633 5.49095 19.733C5.68698 19.833 5.92302 19.757 6.02704 19.565C6.02704 19.565 6.03904 19.545 6.05504 19.521C6.19107 19.833 6.4151 20.2011 6.77916 20.4491C7.18323 20.7292 7.66331 20.8132 8.2114 20.7012C8.72349 20.5971 9.57963 20.1051 10.6598 19.485C12.6281 18.3568 15.6046 16.6525 16.9008 17.2806C17.0129 17.3366 17.0329 17.4446 17.0329 17.4886C17.0329 17.5246 17.0329 17.6527 16.9128 17.7287L16.9208 17.7367Z" fill="#111111" stroke="#111111" stroke-width="0.1"/>
<path d="M9.67164 11.5799C12.1521 11.5799 14.1724 9.54753 14.1724 7.05512C14.1724 4.5627 12.1521 2.52637 9.67164 2.52637C7.19123 2.52637 5.1709 4.5587 5.1709 7.05512C5.1709 9.55153 7.19123 11.5799 9.67164 11.5799ZM9.67164 3.3265C11.712 3.3265 13.3723 4.99878 13.3723 7.05512C13.3723 9.11146 11.712 10.7797 9.67164 10.7797C7.63131 10.7797 5.97103 9.10746 5.97103 7.05512C5.97103 5.00278 7.63131 3.3265 9.67164 3.3265Z" fill="#111111" stroke="#111111" stroke-width="0.1"/>
<path d="M7.86133 4.65999H8.67289L10.6772 7.89394H10.6895V4.65999H11.4211V9.0498H10.6096L8.61141 5.822H8.59296V9.0498H7.86133V4.65999Z" fill="#FF8303"/>
<path d="M7.4248 7.14386H11.8638V7.45127H7.4248V7.14386Z" fill="#FF8303"/>
<path d="M2.25865 8.12714L2.71473 7.79909C3.08679 11.3077 6.06329 14.0601 9.67188 14.0601C13.5325 14.0601 16.677 10.9156 16.677 7.05497C16.677 3.19433 13.5325 0.0498047 9.67188 0.0498047C6.86342 0.0498047 4.331 1.71808 3.22681 4.30251C3.1428 4.50654 3.23482 4.74258 3.43885 4.8266C3.63888 4.91461 3.87492 4.8226 3.96294 4.61856C4.9431 2.33018 7.18347 0.849937 9.67188 0.849937C13.0925 0.849937 15.8769 3.6344 15.8769 7.05497C15.8769 10.4755 13.0925 13.26 9.67188 13.26C6.53136 13.26 3.92693 10.9076 3.52686 7.8791L3.87492 8.13114C3.94693 8.18315 4.02695 8.20716 4.10696 8.20716C4.23098 8.20716 4.355 8.15115 4.43101 8.03913C4.55903 7.8591 4.51903 7.61106 4.339 7.47904L3.29883 6.73091C3.1588 6.6309 2.97077 6.6309 2.83075 6.73091L1.79058 7.47904C1.61055 7.60706 1.57054 7.8591 1.69856 8.03913C1.82658 8.21916 2.07862 8.25916 2.25865 8.13114V8.12714Z" fill="#111111" stroke="#111111" stroke-width="0.1"/>
</svg>
