<svg width="17" height="19" viewBox="0 0 17 19" fill="none" xmlns="http://www.w3.org/2000/svg">
<path d="M16.3004 10.27V15.2706C16.2328 15.55 16.1866 15.8324 16.0999 16.1081C15.7088 17.3491 14.6219 18.4236 13.3779 18.8097C13.1142 18.8916 12.8343 18.9146 12.5727 18.9999H3.76124C1.8063 18.7332 0.16649 17.1265 0.0318574 15.1236C-0.0704978 13.5959 0.113826 11.9561 0.0318574 10.4161C0.174985 8.2089 2.03904 6.57292 4.20676 6.4986C4.73934 6.48033 5.36537 6.58906 5.28297 7.27794C5.19846 7.98551 4.46838 7.81647 3.99525 7.85469C2.68545 7.96087 1.59352 9.00566 1.39475 10.2959C1.62707 12.9576 0.247185 17.4429 4.2471 17.6872C6.94911 17.8524 9.86899 17.6026 12.5833 17.6324C13.8201 17.4068 14.7863 16.4177 14.9443 15.1635C14.6576 12.9232 15.9096 9.21292 13.2497 8.08829C12.5986 7.81265 12.2435 7.93496 11.6235 7.85087C10.8641 7.74767 10.7889 6.57377 11.7874 6.49732C13.9708 6.32999 16.0986 8.08446 16.3004 10.2704V10.27Z" fill="#111111"/>
<path d="M8.84405 2.47283V11.0116C8.84405 11.2707 8.43675 11.5731 8.1832 11.5799C7.91563 11.5867 7.48837 11.2847 7.48837 11.0116V2.47283L5.85324 4.29059C5.21957 4.85418 4.37737 4.13133 4.81949 3.42588C5.75513 2.47538 6.58034 1.34183 7.50918 0.395577C8.00652 -0.111102 8.29065 -0.144654 8.80285 0.373917C9.58389 1.16473 10.5289 2.24519 11.2381 3.10778C11.3188 3.20588 11.4416 3.33669 11.5061 3.4331C11.9665 4.12113 11.1082 4.84994 10.4796 4.29059C10.009 3.87183 9.47941 3.13198 9.03559 2.64187C8.98165 2.58241 8.91497 2.51021 8.84447 2.47283H8.84405Z" fill="#FF8303"/>
</svg>
