<svg width="18" height="22" viewBox="0 0 18 22" fill="none" xmlns="http://www.w3.org/2000/svg">
<path d="M3.88672 13.7801C3.88672 13.3898 4.20309 13.0734 4.59339 13.0734H13.0734C13.4637 13.0734 13.7801 13.3898 13.7801 13.7801C13.7801 14.1704 13.4637 14.4868 13.0734 14.4868H4.59339C4.20309 14.4868 3.88672 14.1704 3.88672 13.7801Z" fill="#111111"/>
<path d="M10.2457 4.59351C9.85544 4.59351 9.53906 4.90988 9.53906 5.30017C9.53906 5.69046 9.85544 6.00684 10.2457 6.00684H13.0724C13.4627 6.00684 13.7791 5.69046 13.7791 5.30017C13.7791 4.90988 13.4627 4.59351 13.0724 4.59351H10.2457Z" fill="#111111"/>
<path d="M3.88672 16.6068C3.88672 16.2165 4.20309 15.9001 4.59339 15.9001H13.0734C13.4637 15.9001 13.7801 16.2165 13.7801 16.6068C13.7801 16.9971 13.4637 17.3135 13.0734 17.3135H4.59339C4.20309 17.3135 3.88672 16.9971 3.88672 16.6068Z" fill="#111111"/>
<path d="M10.2457 7.41998C9.85544 7.41998 9.53906 7.73636 9.53906 8.12665C9.53906 8.51694 9.85544 8.83332 10.2457 8.83332H13.0724C13.4627 8.83332 13.7791 8.51694 13.7791 8.12665C13.7791 7.73636 13.4627 7.41998 13.0724 7.41998H10.2457Z" fill="#111111"/>
<path d="M3.81138 3.19138H4.73888L7.02953 6.88733H7.04358V3.19138H7.87973V8.20831H6.95223L4.66862 4.51939H4.64754V8.20831H3.81138V3.19138Z" fill="#FF8303"/>
<path d="M3.3125 6.03009H8.38564V6.38142H3.3125V6.03009Z" fill="#FF8303"/>
<path fill-rule="evenodd" clip-rule="evenodd" d="M4.94667 0C2.21469 0 0 2.2147 0 4.94667V16.2533C0 18.9853 2.21469 21.2 4.94667 21.2H12.72C15.452 21.2 17.6667 18.9853 17.6667 16.2533V4.94667C17.6667 2.2147 15.452 0 12.72 0H4.94667ZM1.41333 4.94667C1.41333 2.99528 2.99528 1.41333 4.94667 1.41333H12.72C14.6714 1.41333 16.2533 2.99528 16.2533 4.94667V16.2533C16.2533 18.2047 14.6714 19.7867 12.72 19.7867H4.94667C2.99528 19.7867 1.41333 18.2047 1.41333 16.2533V4.94667Z" fill="#111111"/>
</svg>
